<?xml version="1.0" encoding="UTF-8" standalone="no"?>
<!-- Created with Inkscape (http://www.inkscape.org/) -->

<svg
  xmlns:dc="http://purl.org/dc/elements/1.1/"
  xmlns:cc="http://creativecommons.org/ns#"
  xmlns:rdf="http://www.w3.org/1999/02/22-rdf-syntax-ns#"
  xmlns:svg="http://www.w3.org/2000/svg"
  xmlns="http://www.w3.org/2000/svg"
  xmlns:sodipodi="http://sodipodi.sourceforge.net/DTD/sodipodi-0.dtd"
  xmlns:inkscape="http://www.inkscape.org/namespaces/inkscape"
  width="16.625084mm"
  height="17.197544mm"
  viewBox="0 0 58.907778 60.93618"
  id="svg13050"
  version="1.1"
  inkscape:version="0.91 r13725"
  sodipodi:docname="lloyds-register-logo.svg">
  <defs
    id="defs13052">
    <clipPath
      clipPathUnits="userSpaceOnUse"
      id="clipPath4264">
      <path
        d="m 0,0 61.013,0 0,67.778 L 0,67.778 0,0 Z"
        id="path4266"
        inkscape:connector-curvature="0"/>
    </clipPath>
  </defs>
  <sodipodi:namedview
    id="base"
    pagecolor="#ffffff"
    bordercolor="#666666"
    borderopacity="1.0"
    inkscape:pageopacity="0.0"
    inkscape:pageshadow="2"
    inkscape:zoom="1.4"
    inkscape:cx="296.45687"
    inkscape:cy="-212.9214"
    inkscape:document-units="px"
    inkscape:current-layer="layer1"
    showgrid="false"
    inkscape:window-width="1842"
    inkscape:window-height="1057"
    inkscape:window-x="1990"
    inkscape:window-y="-8"
    inkscape:window-maximized="1"
    fit-margin-top="0"
    fit-margin-left="0"
    fit-margin-right="0"
    fit-margin-bottom="0"/>
  <metadata
    id="metadata13055">
    <rdf:RDF>
      <cc:Work
        rdf:about="">
        <dc:format>image/svg+xml</dc:format>
        <dc:type
          rdf:resource="http://purl.org/dc/dcmitype/StillImage"/>
        <dc:title></dc:title>
      </cc:Work>
    </rdf:RDF>
  </metadata>
  <g
    inkscape:label="Layer 1"
    inkscape:groupmode="layer"
    id="layer1"
    transform="translate(-0.54610832,-1.1798286)">
    <g
      id="g4258"
      transform="matrix(0.81945,0,0,-0.916675,0.54610832,64.876978)">
      <g
        id="g4260"
        transform="scale(1.1801,1.0623)">
        <g
          id="g4262"
          clip-path="url(#clipPath4264)">
          <path
            d="m 11.442,49.92 -0.781,-0.927 0,0.122 0,0.146 -0.147,0.244 -0.39,0.269 -1.9759,1.463 -0.5123,0.244 -0.2683,0.147 -0.122,-0.147 0.6587,1.049 0.1219,-0.244 0.122,-0.268 0.4148,-0.268 1.9511,-1.44 0.537,-0.268 0.122,-0.122 0.269,0 z M 10.271,48.603 10.124,48.066 10.002,47.676 9.7338,47.285 9.3435,46.627 8.8068,46.236 8.5629,45.968 8.2945,45.846 l -0.6587,0 -0.5367,0 -0.2683,0.122 -0.3904,0.122 -0.3903,0.415 -0.3903,0.39 -0.2684,0.512 0,0.659 0.1464,0.659 0.244,0.78 0.5367,0.805 0.6586,-0.39 -0.2683,-0.146 -0.122,-0.122 -0.2683,-0.269 -0.2684,-0.268 -0.122,-0.512 0,-0.391 0,-0.414 0.122,-0.391 0.2684,-0.39 0.3903,-0.268 0.5367,-0.122 0.5123,-0.122 0.3903,0 0.4148,0.244 0.2439,0.146 0.1464,0.122 0.3903,0.39 0.2684,0.805 -0.8051,0.513 -0.2439,0.146 -0.2684,0 -0.2684,0 0.3904,0.781 1.8545,-1.049 z m -2.1229,-4.075 -0.9026,-2.512 0,0.146 -0.1464,0.122 -0.5123,0.268 -2.3664,0.781 -0.4147,0.146 -0.2439,0 -0.2684,-0.146 0.6587,2.245 0.7806,-0.269 -0.3903,-0.268 -0.122,-0.122 0,-0.269 -0.1463,-0.268 0,-0.268 1.049,-0.391 0.2683,0.659 0,0.146 -0.122,0.122 0.9027,-0.122 -0.244,-0.268 -0.1463,-0.268 -0.244,-0.391 1.5613,-0.658 0.2684,0.78 0.1219,0.391 0,0.414 0,0.391 0.6587,-0.391 z m -0.7806,-2.366 -0.122,-0.659 -0.2684,-0.39 -0.1463,-0.146 -0.122,-0.122 -1.171,-0.537 -0.927,-0.39 -0.1464,0.536 0,0.391 -0.244,0.268 -0.4147,0.122 -0.3903,0 -0.2684,-0.122 -0.1219,-0.268 0,-0.391 0,-0.414 2.7567,-0.513 0.6586,0 0.2684,0 0.122,0.122 -0.244,-1.171 -0.1464,0.122 -0.1219,0.147 -0.5367,0.244 -2.3664,0.39 -0.6587,0 -0.2683,0 -0.122,-0.122 0.2683,1.439 0,0.415 0.122,0.122 0.3903,0.39 0.2684,0.122 0.5367,0 0.3903,-0.122 0.2684,-0.268 0.1219,-0.122 0,-0.122 0.1464,-0.537 1.293,0.659 0.6587,0.39 0.5367,0.537 z m -1.1954,-7.246 0,-0.512 -0.122,-0.537 -0.7807,-0.122 0.3904,0.659 0.122,0.244 0,0.415 0,0.244 -0.122,0.414 -0.2684,0.122 -0.122,0.122 -0.2683,0 L 4.8791,35.843 4.6108,35.721 4.3424,35.307 4.0741,34.916 3.8057,34.404 3.5618,34.136 3.4154,34.014 3.147,33.867 l -0.2439,0 -0.2684,0 -0.2683,0.147 -0.2684,0.122 -0.122,0.122 -0.1219,0.268 -0.1464,0.268 0,0.391 0,0.268 0,0.39 0.1464,0.537 0.7806,0 -0.2683,-0.268 -0.122,-0.147 0,-0.244 0,-0.414 0,-0.513 0.244,-0.146 0.2683,-0.122 0.2684,0.122 0.1219,0.146 0.2684,0.391 0.2683,0.39 0.2684,0.537 0.2683,0.39 0.3904,0.122 0.2683,0.146 0.244,-0.146 0.2683,0 0.2684,-0.244 0.122,-0.146 0.2683,-0.269 0.122,-0.244 0,-0.414 0,-0.391 z m 0.6587,-6.44 -0.244,0 -0.4147,0.146 -0.3903,0 -2.3664,-0.415 -0.5123,0 -0.2684,-0.122 0,-0.268 -0.2683,1.586 0,0.512 0,0.415 0,0.39 0.2683,0.269 0.122,0.39 0.2684,0.122 0.2683,0.268 0.5123,0.122 0.5367,0.147 0.122,0 0.4147,0 0.3903,-0.147 0.3904,-0.122 0.2683,-0.268 0.244,-0.39 0.2683,-0.269 0.1464,-0.39 0,-0.537 0.244,-1.439 z m 0.6586,-2.489 -0.1219,0 -0.2684,0.122 -0.2683,-0.122 -0.244,0 -0.927,-0.39 -1.4394,-1.464 -0.2683,-0.244 -0.1464,-0.268 0,-0.146 -0.122,0.536 -0.1219,0.269 0,0.122 0.1219,0 1.3174,1.585 -1.3174,0.391 -0.2683,0 -0.2684,-0.122 -0.1219,0 0,-0.147 -0.2684,0.927 2.6347,-0.78 1.049,0.39 0.2684,0 0.2683,0.122 0.2684,0.39 0.2439,-1.171 z M 9.0752,22.572 9.2215,22.035 9.3435,21.523 9.2215,20.864 8.9532,20.205 8.8068,20.059 8.5629,19.791 8.0261,19.4 7.4894,19.278 l -0.3903,0 -0.6587,0 -0.3903,0.122 -0.2683,0.147 -0.244,0.244 -0.1464,0.146 -0.3903,0.659 -0.2684,0.512 0,0.537 0,0.512 0.2684,0.659 0.2683,0.146 0.122,0.269 0.5367,0.244 0.244,0.146 0.2683,0.122 0.5367,0 0.6587,0 0.5123,-0.268 0.5367,-0.391 0.3904,-0.512 z m 2.9028,-4.611 -0.146,0 -0.244,-0.122 -0.537,-0.268 -1.9758,-1.44 -0.3904,-0.268 -0.1219,-0.268 0,-0.269 -0.8051,1.049 0.2683,-0.122 0.2684,0.122 0.3903,0.269 2.2442,1.707 -0.415,0.659 -0.121,0.268 -0.269,0.269 -0.2682,0.122 -0.3903,0.122 0.9275,0.146 1.585,-1.976 z m -5.8059,11.32 0,0.39 0,0.391 -0.122,0.268 -0.2683,0.244 -0.122,0.268 -0.3904,0.269 -0.2683,0.122 -0.3903,0 -0.3904,0.146 -0.4147,-0.146 -0.2439,0 L 3.2934,31.111 3.147,30.989 2.9031,30.452 2.7567,30.183 l 0,-0.39 0.1464,-0.39 0.122,-0.537 3.147,0.415 z M 8.6848,22.303 8.2945,22.694 8.0261,22.962 7.6358,23.084 7.2455,23.231 6.8308,23.084 6.3185,22.962 6.1721,22.816 5.9281,22.694 5.7818,22.572 5.5378,22.303 5.3914,22.035 l 0,-0.122 -0.122,-0.268 0,-0.269 0,-0.39 0.122,-0.268 0.2684,-0.391 0.2683,-0.268 0.3904,-0.122 0.5123,-0.146 0.4147,0.146 0.3903,0.122 0.5123,0.268 0.1464,0.269 0.122,0.122 0.1464,0.268 0.1219,0.268 0.122,0.122 0,0.269 -0.122,0.39 0,0.268 z M 10.783,57.922 9.6119,56.873 8.2945,55.434 7.3675,54.385 6.4404,53.336 5.6598,52.14 4.8791,50.969 4.2204,49.652 3.5618,48.456 3.0251,47.139 2.4884,45.846 1.5857,43.065 1.1954,41.625 0.92703,40.186 0.78066,38.747 0.5367,37.161 l 0,-1.44 -0.14637,-1.585 0.14637,-1.586 0,-1.439 0.24396,-1.44 0.14637,-1.464 0.26837,-1.439 0.3903,-1.439 0.9027,-2.757 0.5367,-1.318 0.5367,-1.317 0.6586,-1.317 0.6587,-1.196 0.7807,-1.171 0.7806,-1.195 0.9271,-1.049 0.927,-1.049 1.171,-1.318 1.3175,-1.317 0,-0.5124 -1.3175,1.1714 -1.171,1.317 -1.049,1.049 -0.927,1.195 -0.7807,1.05 L 4.7327,16.912 4.0741,18.083 3.2934,19.4 2.7567,20.718 2.098,22.157 1.7077,23.621 1.1954,24.938 0.78066,26.5 0.5367,27.963 0.26835,29.403 0.12198,30.989 0,32.55 l 0,1.586 0,1.585 0.12198,1.562 0.41472,3.025 0.24396,1.439 0.41474,1.586 0.5123,1.439 0.3903,1.318 0.6587,1.464 0.5367,1.317 0.7807,1.293 0.6586,1.317 0.8051,1.196 0.7807,1.171 0.927,1.049 1.049,1.073 1.171,1.293 1.3175,1.196 0,-0.537 z m -8.2946,-25.226 -0.122,-0.268 -0.122,0 -0.2684,0 -0.1219,0 0,0.122 0,0.146 0,0.122 0,0.122 0.1219,0.147 0.2684,0 0.3903,-0.147 0.122,0 0.2684,-0.244 0,-0.268 -0.2684,0.122 -0.2683,0.146 z"
            style="fill:#000000;fill-opacity:1;fill-rule:evenodd;stroke:none"
            id="path4268"
            inkscape:connector-curvature="0"/>
          <path
            d="M 22.883,58.068 22.371,57.922 21.98,57.8 l -0.414,0.122 -1.049,0.659 -0.903,0.658 0.512,0.391 0.147,0.268 0,0.268 0,0.269 -0.269,0.39 -0.146,0 -0.244,0.122 -0.415,-0.122 -0.39,-0.268 1.049,-2.635 0.146,-0.244 0.269,-0.268 0.122,-0.147 0.122,-0.122 -1.049,-0.39 0,0.268 0,0.244 -0.122,0.415 -0.927,2.22 -0.269,0.537 0,0.122 -0.122,0.146 -0.268,0 1.439,0.513 0.415,0.121 0.244,0 0.415,0 0.244,-0.121 0.146,-0.122 0.122,-0.269 0.122,-0.39 0,-0.269 -0.122,-0.39 -0.268,-0.268 -0.244,-0.122 1.293,-0.805 0.658,-0.391 0.659,-0.122 z m -4.074,-1.707 -2.22,-1.464 0,0.268 0,0.391 -0.268,0.268 -1.318,2.098 -0.39,0.415 -0.415,0.244 1.976,1.317 0.415,-0.659 -0.415,0 -0.39,-0.268 -0.512,-0.244 0.78,-1.049 0.537,0.39 0.244,0.269 0.39,-0.659 -0.244,-0.146 -0.39,-0.122 -0.415,-0.147 0.927,-1.439 0.659,0.537 0.268,0.122 0.269,0.268 0.122,0.268 0.122,0.244 0.268,-0.902 z M 25.908,7.5682 25.786,7.1778 25.664,6.7875 25.518,6.5191 25.249,6.1288 l -0.39,-0.2684 -0.268,-0.122 -0.391,0 -0.39,0 -0.268,0.122 -0.244,0.1464 -0.147,0.122 -0.268,0.2683 -0.122,0.2684 0,0.244 -0.122,0.2683 0,0.3904 0.122,0.6587 0.268,0.927 0.122,0.2684 0.269,0.2683 0.268,0.244 0.39,0.1464 0.269,0.122 0.39,-0.122 0.39,0 0.269,-0.1464 0.122,-0.244 0.268,-0.1463 0.122,-0.2684 0,-0.3903 0.146,-0.2684 0,-0.3903 -0.146,-0.6587 z m -3.537,3.0248 -0.269,-0.6584 -0.268,0.3904 -0.39,0.268 -0.391,0.147 -0.268,0 -0.268,-0.147 -0.122,0 -0.122,-0.268 0,-0.122 0.122,-0.2684 0.268,-0.3903 0.244,-0.2684 0.415,-0.3903 0.122,-0.3904 0.122,-0.2683 0.146,-0.2684 -0.146,-0.244 0,-0.2683 -0.122,-0.1464 -0.122,-0.122 -0.147,-0.122 -0.39,-0.1463 -0.512,-0.122 -0.415,0.122 -0.244,0 -0.415,0.1463 -0.244,0.122 -0.414,0.3904 0.146,0.805 0.512,-0.6587 0.269,-0.1463 0.268,-0.2684 0.537,0 0.122,0 0.268,0.1464 0.122,0.122 0.122,0.1463 0,0.244 0,0.1464 -0.244,0.5123 -0.927,0.9271 -0.122,0.3903 -0.146,0.2684 0.146,0.39 0.122,0.269 0.268,0.268 0.269,0 0.39,0.122 0.39,0 0.391,-0.122 0.536,-0.268 0.391,-0.269 z m -2.903,1.196 -0.122,0 -0.147,0 -0.122,-0.269 -0.268,-0.39 -1.171,-2.2444 -0.146,-0.5124 0,-0.2683 0,-0.1464 -1.049,0.5367 0.146,0 0.244,0.2684 0.268,0.3903 1.049,2.2441 0.269,0.391 0,0.268 0,0.244 1.049,-0.512 z m -3.806,-0.147 0,-0.122 -0.146,-0.122 -0.244,0 -0.269,0 -0.146,0.122 -0.122,0.122 -0.122,0.269 0,0.268 0.122,0.122 0.268,0.146 0.269,0.122 0.39,-0.122 0.122,-0.146 0,-0.244 0,-0.268 -0.122,-0.147 z m 9.587,-3.9275 0.147,0.6587 -0.147,0.5124 -0.122,0.3903 -0.122,0.2684 -0.146,0 -0.122,0 -0.268,0 -0.269,0 L 24.078,9.4223 23.81,9.2759 23.542,8.7636 23.42,8.3732 23.298,7.7145 l 0,-0.4147 0,-0.3903 0.122,-0.3904 0.122,-0.2683 0.414,0 0.244,-0.122 0.147,0.122 0.39,0.2683 0.268,0.2684 0.122,0.2683 0,0.244 0.122,0.4147 z m -9.733,46.5235 -0.903,-0.902 0,0.122 0,0.268 -0.415,0.512 -1.829,2.245 -0.391,-0.391 -0.39,-0.268 0,-0.268 0,-0.122 -0.415,0.658 2.367,2.098 0.268,-0.78 -0.122,0.122 -0.146,0 -0.244,-0.269 -0.391,-0.39 1.83,-2.22 0.268,-0.268 0.122,-0.147 0.269,0 0.122,0 z m -2.757,-0.78 0.268,-0.513 0.122,-0.415 0,-0.39 -0.122,-0.268 -0.122,-0.391 -0.268,-0.244 -0.39,-0.414 -0.537,-0.244 -0.659,0.39 0.391,0 0.268,0.122 0.39,0.268 0.269,0.269 0.268,0.244 0,0.414 0,0.244 -0.146,0.269 -0.244,0 -0.269,0.146 -0.268,-0.146 -0.659,-0.122 -0.537,-0.269 -0.39,-0.122 -0.3902,0.122 -0.3903,0.269 -0.2683,0.268 0,0.391 0,0.268 0.1463,0.39 0.122,0.244 0.2684,0.415 0.2439,0.244 0.4152,0.268 0.512,-0.512 -0.512,-0.146 -0.269,-0.269 -0.2682,-0.122 0,-0.268 -0.1219,-0.122 0,-0.122 0,-0.268 0.1219,-0.147 0.122,-0.122 0.2682,0 0.39,0 0.537,0.269 0.659,0.268 0.537,0 0.244,0 0.268,-0.146 z m 1.586,-37.985 -0.147,0 -0.122,0 -0.268,-0.147 -0.268,-0.39 -1.83,-1.708 -0.39,-0.39 0,-0.147 0,-0.244 -0.927,0.781 0.268,0 0.268,0.122 0.391,0.415 1.976,1.952 -0.537,0.658 -0.39,0.415 -0.269,0.122 -0.39,0 0.781,0.39 1.854,-1.829 z m 7.489,36.813 -0.927,-0.658 -0.781,-0.805 -0.78,-0.781 -0.805,-0.781 -0.781,-0.927 -0.659,-0.927 -0.512,-1.049 -0.659,-1.049 -0.536,-1.317 -0.391,-1.171 -0.39,-1.318 -0.415,-1.317 -0.244,-1.439 -0.146,-1.464 -0.122,-1.44 0,-1.439 0,-1.708 0.122,-1.585 0.146,-0.781 0,-0.805 0.244,-1.44 0.415,-1.439 0.39,-1.464 0.391,-1.171 0.658,-1.317 0.537,-1.049 0.512,-1.049 0.659,-0.927 0.781,-0.781 0.658,-0.927 0.927,-0.659 0.781,-0.78 0.927,-0.537 0,-3.294 -1.561,0.659 -1.464,0.805 -1.317,0.903 -1.318,1.073 -1.317,1.049 -0.512,0.659 -0.537,0.512 -1.049,1.44 -1.049,1.463 -0.781,1.44 -0.658,1.439 -0.6591,1.586 -0.5367,1.439 -0.2684,1.708 -0.3903,1.586 -0.122,1.708 0,1.707 0,1.854 0.2684,1.83 0.2439,1.83 0.4147,1.732 0.5123,1.561 0.6592,1.708 0.78,1.586 0.927,1.439 0.927,1.318 1.049,1.317 1.049,1.195 1.196,1.049 1.317,1.05 1.317,0.78 1.44,0.781 1.439,0.659 0,-3.27 z m 0,11.686 -1.976,-0.658 -1.83,-0.781 -1.854,-0.927 -1.707,-0.903 -1.708,-1.195 -0.781,-0.659 -0.805,-0.512 -0.78,-0.659 -0.7811,-0.805 -0.6587,-0.659 -0.6587,-0.78 0,0.536 1.3174,1.44 1.5611,1.317 1.586,1.317 1.708,1.05 0.805,0.512 0.902,0.537 1.854,0.78 1.83,0.781 1.976,0.659 0,-0.391 z m 0,-59.9413 -1.976,0.6587 -0.903,0.244 -0.927,0.4147 -1.854,0.9027 -1.707,0.927 -0.927,0.5367 -0.781,0.5124 -1.586,1.1954 -1.4392,1.4397 -1.4393,1.439 0,0.659 1.3174,-1.44 1.5611,-1.439 0.805,-0.6587 0.781,-0.5367 0.781,-0.6587 0.805,-0.5124 1.829,-1.049 0.805,-0.4147 0.903,-0.3904 1.976,-0.7807 1.049,-0.3903 0.927,-0.2684 0,-0.3903 z"
            style="fill:#000000;fill-opacity:1;fill-rule:evenodd;stroke:none"
            id="path4270"
            inkscape:connector-curvature="0"/>
          <path
            d="m 30.129,58.459 -0.122,-0.122 -0.269,-0.147 -0.39,-0.122 -0.415,0 -0.659,0.269 -0.512,0.244 -0.537,0.39 -0.512,-0.244 -0.39,0 -0.537,0 -0.39,0.244 -0.391,0.146 -0.268,0.391 -0.268,0.268 -0.122,0.39 -0.147,0.537 0,0.513 0,0.39 0.147,0.39 0.244,0.415 0.414,0.244 0.391,0.268 0.39,0.269 0.39,0.122 0.537,0 0.391,-0.122 0.39,-0.122 0.39,-0.269 0.269,-0.268 0.268,-0.268 0.268,-0.391 0.122,-0.537 0,-0.634 -0.122,-0.537 -0.268,-0.39 -0.537,-0.39 0.537,-0.415 0.512,-0.244 0.269,-0.146 0.268,-0.122 0.659,0 z m 11.587,-29.837 -2.634,-6.197 -19.736,0 0,0.659 0.658,0 0.513,0.147 0.536,0.244 0.513,0.268 0.658,0.39 0.415,0.537 0.122,0.268 0.122,0.244 0,0.415 0,0.244 0,16.833 0,0.391 0,0.268 -0.122,0.39 -0.122,0.269 -0.268,0.268 -0.269,0.268 -0.268,0.244 -0.268,0.269 -0.513,0.268 -0.658,0.269 -0.537,0.121 -0.659,0 0,0.659 8.173,0 0,-19.053 0,-0.659 0.122,-0.268 0.146,-0.269 0.391,-0.512 0.512,-0.537 0.659,-0.39 0.268,-0.268 0.39,-0.122 0.927,-0.147 0.927,0 0.903,0 1.073,0.147 0.903,0.122 0.805,0.122 0.903,0.268 0.805,0.39 0.658,0.415 0.781,0.39 0.781,0.659 0.658,0.659 0.659,0.78 0.537,0.781 0.536,-0.244 z M 30.007,7.7145 29.86,7.0558 29.592,6.6655 29.348,6.2508 28.933,5.8604 28.421,5.5921 27.884,5.3481 27.372,5.2017 l -0.537,0 0.39,0.2684 0.415,0.122 0.391,0.1463 0.243,0.2684 0.415,0.244 0.244,0.4147 0.147,0.244 0.122,0.3903 0.146,0.4147 -0.146,0.5124 -0.122,0.5367 -0.147,0.122 -0.122,0.1463 -0.268,0.122 -0.269,0 -0.39,0 -0.244,-0.2683 -0.268,-0.2684 0,-0.3903 0,-0.3904 0.122,-0.3903 0.146,-0.1464 0.122,-0.122 0.269,0 0.122,-0.122 0.39,0.122 0.268,0 -0.39,-0.5123 -0.537,0 -0.512,0.122 -0.147,0.122 -0.243,0.1463 -0.147,0.244 -0.122,0.2684 0,0.2683 0,0.2684 0,0.3903 0.122,0.2684 0.147,0.2683 0.243,0.244 0.269,0.1464 0.268,0.122 0.659,0 0.39,0 0.269,-0.122 0.268,-0.1464 0.244,-0.244 0.146,-0.2683 0.122,-0.2684 0,-0.3903 0.147,-0.3904 z m -1.976,53.3795 0,0.39 -0.147,0.39 -0.122,0.269 -0.268,0.268 -0.269,0.244 -0.243,0.146 -0.415,0 -0.391,0 -0.268,0 -0.39,-0.268 -0.122,-0.122 -0.269,-0.268 -0.122,-0.269 -0.146,-0.268 0,-0.659 0.146,-0.39 0.122,-0.391 0.122,-0.268 0.269,-0.268 0.268,-0.244 0.39,-0.147 0.269,0 0.39,0 0.269,0.147 0.268,0 0.268,0.244 0.122,0.268 0.269,0.268 0,0.269 0,0.659 z m 10.124,-3.294 -1.196,0.39 0.147,0.147 0,0.512 0,0.927 -1.586,0.39 -0.512,-0.78 -0.269,-0.537 0,-0.122 0.122,0 -1.049,0.244 0.122,0 0.269,0.268 0.39,0.537 1.708,2.367 0.146,0.122 0,0.268 0,0.122 -0.146,0 1.073,-0.122 0.39,-3.562 0,-0.39 0.122,-0.244 0.147,-0.269 0.122,-0.268 z m -4.465,5.514 -0.146,-0.122 -0.122,-0.122 -0.146,-0.269 0,-0.39 -0.122,-2.513 0.122,-0.659 0,-0.122 0.146,-0.146 -0.927,0 0,0.537 -0.268,-0.269 -0.269,-0.122 -0.39,-0.146 -0.39,0 -0.269,0 -0.244,0.146 -0.268,0.122 -0.146,0.269 -0.244,0.536 -0.147,0.391 0,0.39 0.147,1.708 -0.147,0.537 0,0.244 -0.122,0.146 1.171,0 -0.122,-0.146 -0.122,-0.244 0,-0.537 -0.146,-1.708 0,-0.537 0.268,-0.512 0.122,-0.146 0.147,-0.122 0.39,0 0.268,0 0.244,0 0.415,0.268 0.122,0.268 0.122,0.391 0,1.976 0,0.512 0,0.269 -0.122,0.122 1.195,0 z m 5.001,-23.128 0,-0.659 0,-0.658 -0.268,-0.537 -0.146,-0.512 -0.244,-0.537 -0.415,-0.513 -0.39,-0.536 -0.513,-0.391 -0.805,-0.658 -1.049,-0.537 -0.927,-0.39 -1.049,-0.244 0.391,0 0.536,-0.147 0.391,-0.39 0.39,-0.268 0.537,-0.513 0.39,-0.658 0.39,-0.659 0.391,-0.927 1.463,-4.343 -0.805,-0.39 -1.049,-0.39 -1.049,-0.269 -1.049,-0.268 -1.317,3.293 -0.537,1.586 -0.39,1.049 -0.244,0.781 -0.415,0.781 -0.122,0.268 -0.268,0.268 -0.39,0.537 -0.391,0.39 -0.536,0.269 -0.659,0.122 -0.512,0 0,0.78 0.658,-0.122 0.903,0.122 0.927,0.147 0.537,0.244 0.39,0.146 0.781,0.512 0.536,0.415 0.391,0.39 0.39,0.513 0.146,0.268 0.122,0.269 0.269,0.512 0.122,0.659 0.146,0.658 0,0.659 0,0.805 -0.146,0.781 -0.269,0.658 -0.39,0.659 -0.39,0.512 -0.537,0.537 -0.659,0.39 -0.78,0.391 -0.513,0.146 -0.805,0.122 -0.78,0.122 -1.049,0.147 0,0.78 3.927,0 1.074,0 0.512,-0.122 0.537,-0.146 0.927,-0.244 0.902,-0.537 0.659,-0.39 0.659,-0.537 0.39,-0.512 0.415,-0.659 0.244,-0.659 0.268,-0.658 0.146,-0.781 0,-0.927 z m -0.805,-31.9591 0,-0.7807 0,-0.6587 -0.268,-0.5367 -0.122,-0.244 -0.268,-0.2684 -0.269,-0.1463 -0.244,0 -0.414,-0.122 -0.391,0.122 -0.268,0.1463 -0.244,0.2684 -0.268,0.244 -0.269,0.4147 -0.122,0.3903 -0.146,0.3904 -0.122,0.6587 0.122,0.6587 0.146,0.6587 0.391,0.3903 0.39,0.122 0.268,0 0.391,0.1464 0.268,-0.1464 0.268,0 0.244,-0.244 0.269,-0.1463 0.268,-0.2684 0.122,-0.3903 0.146,-0.2684 0.122,-0.3903 z m -4.074,-0.7807 0,-0.9271 L 33.69,6.1288 33.544,5.8604 33.276,5.4701 33.032,5.2017 l -0.269,-0.122 -0.39,0 -0.415,0 -0.39,0.122 -0.244,0.1464 -0.268,0.244 -0.269,0.4147 -0.122,0.3903 -0.146,0.3904 0,0.3903 0,0.5367 0.146,0.3904 0.122,0.3903 0.122,0.3904 0.269,0.2683 0.146,0.122 0.122,0.1464 0.268,0.122 0.391,0 0.39,0 0.39,-0.122 0.269,-0.2684 0.268,-0.2683 0.122,-0.2684 0.268,-0.3903 0,-0.3904 0,-0.3903 z m 3.294,0.5123 0,0.4147 -0.147,0.244 -0.122,0.2684 -0.122,0.2683 -0.268,0.2684 -0.146,0.122 -0.244,0 -0.147,0 -0.39,-0.122 -0.268,-0.2684 -0.122,-0.3903 0,-0.3904 0,-0.4147 0.122,-0.244 0.146,-0.6587 0.122,-0.2683 0.122,-0.2684 0.268,-0.2683 0.147,-0.122 0.244,-0.122 0.268,0.122 0.268,0.122 0.269,0.2683 0,0.3904 0.122,0.3903 -0.122,0.6587 z m -3.952,-0.6587 0,0.6587 -0.122,0.2684 -0.147,0.2683 -0.122,0.2684 -0.146,0.122 -0.244,0.1463 -0.268,0 -0.269,0 -0.122,-0.1463 -0.146,-0.122 -0.122,-0.2684 -0.122,-0.5367 -0.146,-0.6587 0.146,-0.6343 0.244,-0.5367 0.146,-0.2684 0.122,-0.2683 0.269,0 0.268,-0.122 0.122,0.122 0.268,0 0.122,0.1463 0.147,0.2684 0.122,0.5123 0,0.7807 z m 3.805,52.9882 -0.122,1.708 -1.049,-1.439 1.171,-0.269 z m -17.76,-42.327 1.196,-0.927 1.171,-0.903 1.317,-0.805 1.317,-0.512 1.464,-0.537 0.659,-0.268 0.781,-0.122 1.439,-0.122 1.464,-0.147 1.317,0.147 1.293,0 1.195,0.244 1.049,0.268 1.049,0.268 1.049,0.391 0.927,0.537 0.805,0.512 1.293,-1.171 1.464,-0.927 -0.805,-0.391 -0.781,-0.39 -1.585,-0.659 -1.562,-0.536 -1.585,-0.391 -1.049,-0.268 -1.196,-0.122 -2.366,-0.146 -1.586,0.146 -1.561,0.122 -1.464,0.146 -1.439,0.391 -1.318,0.39 -0.658,0.122 -0.659,0.268 -1.317,0.659 -1.318,0.659 0,4.074 z M 37.886,3.7623 36.057,3.372 34.203,3.1036 l -1.83,-0.2683 -1.976,0 -1.464,0 -1.439,0.1464 -1.44,0.1219 -1.463,0.2684 -1.293,0.2684 -1.318,0.2439 -1.463,0.4148 -1.318,0.5123 0,0.5367 1.318,-0.5367 1.317,-0.3904 1.464,-0.3903 1.293,-0.2684 1.463,-0.2683 1.44,-0.122 1.439,-0.1464 1.464,0 1.976,0.1464 1.708,0.122 1.829,0.2683 1.976,0.3904 0,-0.3904 z m 0,60.3567 -1.829,0.39 -1.854,0.268 -1.83,0.122 -1.976,0.122 -1.464,0 -1.561,-0.122 -1.318,-0.122 -1.463,-0.268 -1.44,-0.268 -1.317,-0.269 -1.317,-0.39 -1.318,-0.512 0,0.39 1.318,0.512 1.317,0.391 1.464,0.268 1.293,0.268 1.463,0.269 1.44,0.122 1.439,0.122 1.464,0 1.976,0 1.83,-0.244 1.854,-0.269 1.829,-0.268 0,-0.512 z m 0,-11.32 -0.78,0.39 -0.927,0.415 -0.927,0.244 -1.049,0.268 -0.927,0.122 -1.171,0.147 -2.245,0.122 -1.439,0 -1.586,-0.269 -0.659,-0.122 -0.658,-0.268 -0.781,-0.122 -0.659,-0.268 -1.317,-0.659 -1.195,-0.781 -1.171,-0.927 -0.537,-0.512 -0.659,-0.537 0,4.343 1.318,0.658 1.317,0.513 1.464,0.536 1.293,0.391 1.463,0.39 1.44,0.146 1.586,0.122 1.439,0.122 1.976,-0.122 0.927,-0.122 0.927,-0.146 0.903,-0.122 0.805,-0.268 1.829,-0.659 0,-3.025 z"
            style="fill:#000000;fill-opacity:1;fill-rule:evenodd;stroke:none"
            id="path4272"
            inkscape:connector-curvature="0"/>
          <path
            d="m 44.863,59.386 -0.268,-0.147 -0.122,-0.122 -0.268,-0.39 -1.318,-2.244 -0.268,-0.659 0,-0.122 0.146,-0.146 -1.049,0.658 0.122,0 0.122,0 0.147,0.147 0.122,0.122 0.146,0.39 1.293,2.098 0.146,0.659 0,0.146 0,0.122 1.049,-0.512 z m -3.293,-2.123 -0.659,-0.658 -2.366,1.073 0.268,0 0.122,0.122 0.269,0.659 0.927,2.244 0.122,0.244 0.146,0.39 0,0.147 -0.146,0.122 1.049,-0.512 -0.122,0 -0.122,-0.147 -0.269,-0.512 -1.195,-2.635 0.805,-0.39 0.244,-0.147 0.415,0 0.512,0 z m 8.173,-44.303 0,-0.659 -1.074,0 -1.049,0.146 -0.902,0.122 -0.927,0.269 -0.928,0.268 -0.927,0.244 -0.78,0.415 -0.927,0.39 -1.318,0.903 -0.512,0.415 -0.659,0.512 -0.536,0.537 -0.513,0.512 -1.073,1.195 -0.659,0.927 -0.512,0.781 -0.537,0.927 -0.512,0.903 4.074,0 0.39,-0.781 0.391,-0.927 0.536,-0.781 0.391,-0.78 1.049,-1.464 0.536,-0.659 0.513,-0.658 0.805,-0.659 0.78,-0.513 0.659,-0.536 0.781,-0.391 0.537,-0.122 0.39,-0.146 0.781,-0.244 0.927,-0.146 0.805,0 z M 41.57,7.1778 40.399,6.6655 l 0,0.244 0.122,0.2683 -0.122,0.5367 -0.927,2.3665 -0.659,-0.2684 0.269,0.2684 0.244,0.39 0.146,0.391 0.122,0.536 1.317,-3.4395 0.147,-0.3903 0.244,-0.2684 0.268,-0.122 z m 9.612,47.0602 -2.757,-0.634 -0.805,-0.805 -0.122,-0.122 -0.146,-0.269 0,-0.268 0,-0.122 -0.903,0.781 0.269,0 0.122,0.146 0.268,0.122 0.122,0.269 0.659,0.658 0.536,2.098 0.122,0.391 -0.122,0.39 0.391,-0.39 0.268,-0.122 0,-0.269 -0.415,-1.976 1.318,0.391 0.268,0 0.146,0.146 0,0.122 0,0.268 0.781,-0.805 z m -3.025,3.025 -0.659,-0.512 0,0.122 0,0.146 -0.268,0.244 -0.512,0.269 -1.733,-2.367 -0.243,-0.512 0,-0.268 0,-0.147 -0.928,0.659 0.391,0.268 0.268,0.391 1.708,2.366 -0.39,0.268 -0.147,0.147 -0.244,0.122 -0.415,0 0.659,0.512 2.513,-1.708 z m -12.759,-0.658 0.903,-0.122 0.805,-0.269 1.829,-0.658 1.586,-0.781 1.586,-0.927 1.439,-0.903 1.439,-1.195 1.318,-1.318 1.317,-1.317 1.196,-1.561 1.049,-1.586 0.78,-1.708 0.805,-1.708 0.513,-1.707 0.39,-1.854 0.146,-0.903 0.122,-0.927 0,-1.049 0,-0.927 0,-1.318 0,-1.171 -0.122,-1.317 -0.146,-1.196 -0.244,-1.171 -0.268,-1.049 -0.659,-2.244 -0.39,-0.927 -0.269,-0.781 -0.39,-0.927 -0.39,-0.781 -0.927,-1.439 -1.049,-1.464 -0.415,-0.512 -0.39,-0.537 -0.391,-0.39 -0.39,-0.537 -0.927,-0.78 -0.927,-0.781 -0.659,0.659 -0.659,0.78 -1.049,1.196 0.659,0.512 0.537,0.781 0.512,0.658 0.537,0.927 0.537,0.927 0.512,1.05 0.805,2.366 0.659,2.098 0.244,1.049 0.146,1.049 0.122,1.074 0.122,1.049 0.146,2.098 -0.146,1.707 -0.122,1.708 -0.268,1.708 -0.391,1.708 -0.268,1.049 -0.39,1.049 -0.391,1.049 -0.39,0.927 -0.537,0.927 -0.39,0.927 -1.196,1.708 -0.78,0.902 -0.781,0.805 -0.927,0.781 -0.927,0.781 -0.903,0.536 -1.073,0.537 -1.171,0.513 -1.049,0.39 0,2.757 z M 50.255,9.9346 48.669,8.6172 46.962,7.4462 46.059,6.9095 45.254,6.3971 43.424,5.5921 42.497,5.0797 41.57,4.8114 39.594,4.1527 37.496,3.6404 36.447,3.372 35.398,3.2256 l 0,0.4148 1.049,0.2439 1.049,0.1464 1.049,0.2684 0.927,0.2439 1.976,0.6587 1.976,0.9271 1.83,0.927 1.708,1.0491 1.707,1.171 1.586,1.1951 0,-0.5364 z m 0,47.8654 -0.781,0.659 -0.805,0.512 -1.707,1.195 -1.708,1.05 -1.83,0.927 -1.976,0.927 -1.976,0.634 -1.976,0.537 -2.098,0.39 0,0.39 2.098,-0.39 2.098,-0.512 1.976,-0.659 0.927,-0.268 0.927,-0.537 1.83,-0.781 1.708,-1.049 1.707,-1.195 1.586,-1.293 0,-0.537 z"
            style="fill:#000000;fill-opacity:1;fill-rule:evenodd;stroke:none"
            id="path4274"
            inkscape:connector-curvature="0"/>
          <path
            d="m 54.597,49.92 -2.244,-2.903 -0.244,-0.659 0,-0.268 -0.146,-0.244 -0.659,1.171 0.146,-0.122 0.122,0.122 0.269,0.122 0.122,0.146 0.536,0.781 -0.927,1.317 -0.78,-0.122 -0.537,-0.268 0,-0.268 -0.659,0.927 0.537,-0.147 0.268,0.147 0.244,0 2.903,0.658 0.391,0.122 0.146,0.147 0,0.122 0.512,-0.781 z m 2.513,-5.001 -0.805,-0.269 0.146,0.269 0.122,0.268 -0.122,0.244 0,0.268 -0.268,0.391 -0.39,0.146 -0.147,0.122 -0.122,-0.122 -0.146,-0.146 -0.122,-0.244 -0.122,-0.415 0,-0.512 -0.146,-0.537 -0.122,-0.39 -0.147,-0.391 -0.122,-0.122 -0.122,0 -0.536,-0.146 -0.391,0.146 -0.268,0 -0.122,0.122 -0.268,0.122 -0.122,0.269 -0.269,0.536 -0.146,0.391 -0.122,0.268 0,0.391 0.659,0.512 -0.122,-0.781 0.122,-0.537 0,-0.122 0.268,-0.39 0.122,-0.146 0.146,-0.122 0.244,0 0.269,0 0.146,0.122 0.122,0.414 0.268,0.903 0,0.537 0.122,0.39 0.269,0.391 0.268,0.146 0.39,0.122 0.391,-0.122 0.39,-0.268 0.146,-0.122 0.122,-0.147 0.122,-0.268 0.147,-0.244 0.122,-0.268 0.146,-0.659 z m 1.049,-3.952 -0.659,-0.122 0.122,0.39 0.147,0.39 -0.147,0.391 -0.122,0.146 -0.146,0.244 -0.244,0.146 -0.268,0 -0.147,-0.146 -0.122,-0.122 -0.122,-0.122 -0.146,-0.415 -0.122,-0.512 -0.146,-0.537 -0.122,-0.39 -0.269,-0.268 -0.268,-0.122 -0.512,0 -0.269,0.122 -0.268,0.146 -0.512,0.39 -0.147,0.269 0,0.122 -0.122,0.78 0,0.659 0.781,0.415 -0.244,-0.659 -0.146,-0.537 0.146,-0.39 0.122,-0.268 0.268,-0.269 0.122,-0.122 0.391,0 0.146,0.122 0.244,0.269 0.146,0.39 0.122,0.537 0.147,0.512 0.244,0.415 0.268,0.244 0.268,0.146 0.269,0.122 0.268,-0.122 0.244,-0.146 0.146,-0.122 0.269,-0.122 0.122,-0.269 0.122,-0.268 0,-0.268 0.146,-0.513 0,-0.536 z m 0.659,-5.392 -0.147,0.146 -0.268,0.122 -0.512,0 -2.513,-0.268 -0.244,0 -0.268,-0.122 -0.269,0 -0.122,-0.268 0,1.049 0.391,0 -0.269,0.268 -0.122,0.268 -0.146,0.244 -0.122,0.415 0,0.244 0.122,0.415 0.146,0.244 0.122,0.268 0.122,0.147 0.269,0.122 0.39,0.122 0.537,0 1.707,0.268 0.659,0 0.268,0.268 0,-1.195 -0.146,0.146 -0.39,0 -0.244,0 -1.854,-0.146 -0.537,0 -0.244,-0.122 -0.146,-0.122 -0.269,-0.415 0,-0.122 0,-0.268 0.147,-0.513 0.122,-0.146 0.268,-0.244 0.268,0 0.269,0 2.098,0.122 0.512,0 0.268,0.122 0,0.146 0.147,-1.195 z m 0,-0.927 -0.147,-1.439 -0.122,-0.659 -0.146,-0.39 -0.39,-0.122 -0.244,-0.147 -0.147,0 -0.39,0.147 -0.39,0.244 -0.269,0.268 0,0.537 -1.317,-0.927 -0.39,-0.269 -0.659,-0.658 0.122,0.536 0.146,0.513 0.244,0.268 1.074,0.659 0.902,0.536 0.147,-0.39 0.122,-0.415 0.268,-0.244 0.39,-0.146 0.269,0.146 0.268,0.122 0.122,0.269 0,0.268 0,0.39 -2.903,0.269 -0.659,0 -0.122,-0.147 -0.122,-0.122 0.122,1.171 0.122,-0.122 0.147,-0.146 0.512,0 2.513,-0.122 0.39,-0.122 0.39,0.122 0.147,0.122 z m -0.659,-5.782 -0.146,-0.903 -3.538,-0.658 -0.658,-0.147 -0.269,-0.122 -0.268,-0.146 0.39,1.195 0.147,-0.122 0.512,0 0.927,0.122 0.39,1.586 -0.927,0.512 -0.39,0.147 -0.122,0 -0.122,-0.147 0.244,1.196 0.146,-0.268 0.122,-0.269 0.537,-0.268 2.366,-1.708 0.513,-0.122 0.146,0.122 z m -0.927,-3.806 -0.268,-0.927 -4.074,-1.049 2.366,-0.927 0.537,-0.122 0.39,0.122 -0.39,-1.049 -0.147,0.146 -0.122,0.269 -0.146,0 -0.244,0.122 -3.562,1.439 0.537,0.269 0.512,0.268 3.562,1.049 -2.513,0.927 -0.39,0 -0.268,0 -0.122,-0.146 0.39,1.049 0.146,-0.122 0.122,-0.269 0.391,-0.122 2.366,-0.927 0.537,-0.122 0.39,0.122 z m -3.025,-6.831 -0.122,-0.39 -0.268,-0.268 -0.269,-0.269 -0.658,0.269 0.536,0.39 0.122,0.122 0.122,0 0.147,0.415 0.122,0.39 0.146,0.39 -0.146,0.269 -0.122,0.39 -0.269,0.268 -0.39,0.244 -0.537,0.269 -0.512,0.146 -0.415,-0.146 -0.39,-0.122 -0.268,-0.147 -0.244,-0.39 -0.147,-0.268 -0.122,-0.391 -0.122,-0.39 0,-0.268 -0.414,0.658 0,0.391 0.268,0.414 0.39,0.659 0.269,0.244 0.268,0.146 0.268,0.122 0.244,0.147 0.269,0 0.268,0 0.537,0 0.658,-0.415 0.513,-0.244 0.39,-0.537 0.146,-0.536 0.122,-0.513 -0.122,-0.536 -0.268,-0.513 z m -1.586,-2.244 -1.317,-1.561 -0.122,-0.147 -0.659,0.39 0.391,0.147 0.39,0.244 0.268,0.537 -0.78,0.927 -0.537,-0.659 -0.122,-0.146 -0.537,0.414 0.269,0.122 0.268,0.122 0.268,0.415 -1.195,1.049 -0.537,-0.537 -0.244,-0.268 -0.146,-0.244 -0.122,-0.268 0,-0.391 -0.537,0.781 1.854,1.976 0,-0.268 0.122,-0.122 0.147,-0.269 0.244,-0.146 1.707,-1.708 0.537,-0.39 0.268,0 0.122,0 z m 1.318,33.935 -1.83,-0.415 0.781,-1.049 1.049,1.464 z M 57.5,28.476 56.037,29.403 55.793,28.085 57.5,28.476 Z m -9.88,-19.9808 1.586,1.0491 1.317,1.1957 1.318,1.317 1.171,1.293 1.195,1.317 1.049,1.586 0.927,1.44 0.927,1.707 0.781,1.708 0.39,0.805 0.268,0.903 0.659,1.708 0.39,1.854 0.391,1.829 0.268,1.976 0.122,1.977 0.146,1.976 -0.146,1.976 -0.122,1.976 -0.268,1.83 -0.391,1.976 -0.39,1.829 -0.659,1.708 -0.268,0.927 -0.39,0.781 -0.781,1.732 -0.927,1.708 -0.39,0.78 -0.537,0.781 -1.049,1.464 -1.195,1.439 -1.171,1.318 -1.318,1.171 -1.317,1.195 -1.586,1.049 0,0.512 1.586,-1.049 0.659,-0.512 0.78,-0.659 1.318,-1.195 1.195,-1.439 1.171,-1.44 1.195,-1.464 0.513,-0.78 0.414,-0.781 0.903,-1.708 0.927,-1.707 0.659,-1.855 0.268,-0.927 0.268,-0.902 0.513,-1.854 0.39,-1.83 0.268,-1.976 0.147,-2.098 0.122,-1.976 L 60.794,32.16 60.647,30.062 60.379,28.207 60.257,27.158 59.989,26.256 59.476,24.402 58.94,22.572 58.281,20.718 57.354,19.01 56.451,17.302 55.524,15.717 54.329,14.277 53.817,13.496 53.158,12.838 51.963,11.52 50.645,10.203 49.206,9.0319 48.425,8.4952 47.62,7.9585 l 0,0.5367 z"
            style="fill:#000000;fill-opacity:1;fill-rule:evenodd;stroke:none"
            id="path4276"
            inkscape:connector-curvature="0"/>
        </g>
      </g>
    </g>
  </g>
</svg>
