<?xml version="1.0" encoding="UTF-8" standalone="no"?>
<!-- Created with Inkscape (http://www.inkscape.org/) -->

<svg
  xmlns:dc="http://purl.org/dc/elements/1.1/"
  xmlns:cc="http://creativecommons.org/ns#"
  xmlns:rdf="http://www.w3.org/1999/02/22-rdf-syntax-ns#"
  xmlns:svg="http://www.w3.org/2000/svg"
  xmlns="http://www.w3.org/2000/svg"
  xmlns:sodipodi="http://sodipodi.sourceforge.net/DTD/sodipodi-0.dtd"
  xmlns:inkscape="http://www.inkscape.org/namespaces/inkscape"
  width="36.306671mm"
  height="13.362852mm"
  viewBox="0 0 128.64569 47.348688"
  id="svg12968"
  version="1.1"
  inkscape:version="0.91 r13725"
  sodipodi:docname="atlas-copco-logo.svg">
  <defs
    id="defs12970">
    <clipPath
      clipPathUnits="userSpaceOnUse"
      id="clipPath4202">
      <path
        d="m 0,0 423.09,0 0,154.04 L 0,154.04 0,0 Z"
        id="path4204"
        inkscape:connector-curvature="0"/>
    </clipPath>
  </defs>
  <sodipodi:namedview
    id="base"
    pagecolor="#ffffff"
    bordercolor="#666666"
    borderopacity="1.0"
    inkscape:pageopacity="0.0"
    inkscape:pageshadow="2"
    inkscape:zoom="7.9195959"
    inkscape:cx="88.752995"
    inkscape:cy="19.260666"
    inkscape:document-units="px"
    inkscape:current-layer="layer1"
    showgrid="false"
    inkscape:window-width="1842"
    inkscape:window-height="1057"
    inkscape:window-x="1990"
    inkscape:window-y="-8"
    inkscape:window-maximized="1"
    fit-margin-top="0"
    fit-margin-left="0"
    fit-margin-right="0"
    fit-margin-bottom="0"/>
  <metadata
    id="metadata12973">
    <rdf:RDF>
      <cc:Work
        rdf:about="">
        <dc:format>image/svg+xml</dc:format>
        <dc:type
          rdf:resource="http://purl.org/dc/dcmitype/StillImage"/>
        <dc:title></dc:title>
      </cc:Work>
    </rdf:RDF>
  </metadata>
  <g
    inkscape:label="Layer 1"
    inkscape:groupmode="layer"
    id="layer1"
    transform="translate(-12.336688,-7.3011196)">
    <g
      id="g4196"
      transform="matrix(1.8195,0,0,-0.6666625,11.022317,54.821854)">
      <g
        id="g4198"
        transform="scale(0.17018,0.46742)">
        <g
          id="g4200"
          clip-path="url(#clipPath4202)">
          <path
            d="m 300.6,77.824 -0.58,-3.586 -0.39,-1.61 -1,-1.586 -1.59,-3.001 -1.98,-2.586 -1.58,-1.586 -0.98,-1 -2.97,-1.586 -2.95,-1 -3.18,0 -1.97,0 -1.39,0.39 -1.56,0.61 -1.59,1.586 -1.39,1 -0.98,2.001 -0.61,2.171 -0.39,2.001 -2.17,-2.586 -1.97,-2.001 -3.96,-3.171 -1.97,-1.001 -1.98,-0.61 -2.17,-0.39 -1.37,0 -1.97,0 -2,0.39 -1.56,1.001 -1,1.61 -0.98,1.586 -0.58,1 -0.42,0.976 -0.58,2.195 0,2.586 0,1.611 0.58,2 -3.15,-3.196 -2.36,-3.001 -2.59,-2.586 -2.98,-2.195 -2.56,-1.976 -1.97,-1.001 -2.56,-1 -1.98,0 -1.59,0 -1.39,0.39 -1.56,0.61 -1.58,1.001 -2.96,-11.369 -9.09,0 2.17,8.173 3.36,15.54 -2.97,-3.586 -2.96,-3.001 -2.97,-2.586 -3.15,-2.171 -2.36,-1.61 -2.57,-1.001 -1.61,-0.39 -1.36,0 -2.59,0 -1.56,0 -1,0.39 -1.37,0.61 -1,1.001 -1.19,1.585 -0.98,1.001 -1,1.976 -0.39,1.61 -0.97,-1 -1,-1.586 -1.59,-1.61 -1.98,-0.976 -1.95,-1.61 -2.19,-1.001 -2.37,-0.39 -1.98,0 -1.19,0 -1.37,0 -1.58,0.39 -0.98,0.61 -2,1.586 -1.56,1 -1.39,2.001 -0.98,2.171 -0.61,2.001 -0.39,2.586 -0.58,2 0,2.586 0,2.781 0.58,2.001 0.39,2 1,2.586 1.98,4.172 3.17,4.782 1.37,2.586 1.97,1.998 2.17,1.59 1.98,1.58 1.39,1 2.17,0.39 1.98,0.61 2.36,0 2.59,0 1.56,-0.61 1,-0.39 1.98,-1 0.97,-0.58 0.61,-1 1.37,2.58 3.56,0 -3.56,-14.536 -3.56,0 -0.39,4.586 -0.59,3.196 -0.39,1 -0.61,0.976 -0.39,0.608 -0.58,0.59 -1.39,0.41 -0.98,-0.41 -1.59,-0.59 -1,-0.998 -1.56,-1 -1.39,-1.586 -1.19,-2.196 -1.37,-2.586 -1.59,-3 -1.39,-4.172 -1.56,-3.586 -0.61,-3.782 -0.39,-3.586 0.39,-2.586 0.61,-1.61 0.98,-1.391 0.97,-1.195 1.98,-0.976 1.59,0 0.97,0 1.61,0.585 1.37,1.001 1,1 1.56,1.586 1.59,2 2.97,5.172 1.37,3.782 2.19,2.586 1.96,2.586 1.97,1.585 2,1.415 2.56,1.171 1.98,0.415 1.59,0 2.36,0 1,-0.415 1.17,-0.585 1.39,-1 1.56,-1.586 1,-2.001 0.98,-2.171 0,-2.586 0.39,-2 -0.39,-2.586 -0.58,-2.586 4.14,4.586 1.98,2.586 1.58,2.586 1.39,4.757 -3.95,0 0.98,2.586 12.05,0 -0.59,-3.171 1.59,1.586 1.95,1.585 2,0.415 2.56,0 1.56,0 1.4,-0.415 1.58,-1.171 1,-1 0.98,-2 0.61,-1.586 0.36,-2.001 0,-2.586 0,-3.781 -0.97,-3.586 10.07,11.368 3.56,3.172 2.37,2 3.17,1.586 2.37,0 2.17,0 1.98,0 1,-1 1.36,-0.586 0.59,-1 0.61,-1.586 0.39,-1.415 0,-1.585 0,-2.196 -0.39,-0.39 0,-1.001 -1.59,-0.585 -0.97,-0.61 -1,0 -1.59,0.61 -0.39,0.585 -0.59,0.415 -0.39,0.976 0,0.61 0,1.586 0.39,1 1.57,1 0.41,0 0.98,0.586 -1.39,1 -0.98,0.585 -0.59,0 -1,0 -0.97,-1.171 -1.59,-1 -0.97,-2 -2,-4.172 -0.59,-2.196 -0.39,-1.976 0,-5.196 0,-1.586 0,-1 0.98,-1.001 1,-0.585 1,-0.415 0.97,0.415 1.59,0.585 1.97,1.001 1.57,1.585 2,2.001 6.51,9.954 3.95,4.171 3.56,3.587 1.96,1 1.58,0.585 1.98,0.415 1.58,0 2.37,0 1,-0.415 1.17,0 1.39,-1.585 0.98,-0.586 0.61,-1 1,-2.001 0.39,-2.171 0.58,-2.586 0,-2.586 z m -1.58,42.006 -293.2138,0 0,32.67 293.2138,0 0,-32.67 z m 0,-112.5355 -293.2138,0 0,32.6665 293.2138,0 0,-32.6665 z m -147.21,76.7015 -0.39,-1.415 -0.58,-1.195 -1.39,-0.976 -0.98,0 -1.58,0 -0.98,0.586 -1,1 0,1 0,0.586 0.39,1 0.61,0.585 0.98,0.415 -0.98,1 -1,0.586 -1,0.585 -0.98,0 -1.58,-0.585 -0.98,-0.586 -0.61,-1.415 0,-1.171 0,-1 0.61,-1 1.56,-2.001 1.98,-1.585 4.56,-3.782 0,-0.39 0.39,-0.61 0.59,-1 0.41,-1.586 0,-1.61 -0.41,-1.391 -0.98,-1.586 -1,-2.195 -2.17,-1.391 -1.98,-1.195 -1.97,-1.001 -2.56,-0.39 -1.98,0 -2.98,0 -1.58,0.39 -1.37,0.61 -1,1.001 -1.17,1 -1,0.976 0,1.195 -3.34,-2.586 -3.17,-1.586 -1.98,-1 -1.97,-0.585 -0.98,0.585 -1,0 -1,1 -0.98,1.001 -1.58,1.585 -2.56,-1.585 -1.98,-1.001 -2.56,-1 -2,0 -1.37,0 -1.56,0 -1.61,0.39 -0.976,1.001 -0.39,0.61 -0.585,1 -1.001,2.171 -0.39,3.001 -0.976,-1.61 -1.61,-1.391 -1.951,-1.586 -1.586,-1.585 -1.976,-1.001 -1.976,-0.61 -1.586,-0.39 -1.391,0 -1.585,0 -0.976,0 -0.976,0.39 -1,1.001 -0.61,0.61 -0.39,1 -1.171,2.586 -3.367,-2.586 -3.562,-2.001 -2.952,-1 -1.585,0 -0.976,0 -2.586,0 -1.391,1.391 -0.975,0.61 -1.196,1 -0.976,2.586 -0.975,-1.61 -1.391,-0.976 -1.586,-1 -1.585,-0.61 -3.343,-1.391 -4.147,0 -1.976,0 -1.586,0.39 -1.39,0.61 -0.976,1.001 -1,1 -0.586,0.976 0,1.61 0,0.976 0.586,3.196 1,3.196 1.952,7.172 -9.466,0 -1,-3.586 -1.171,-2.586 -1.391,-3.196 -1.585,-2.586 -1.366,-2.001 -2.196,-2.195 -1.976,-1.391 -2.366,-1.586 -1.586,-0.61 -1.562,-0.39 -2,0 -1.9516,0 -2.5859,0 -0.9758,0.39 -0.9759,0.61 0,4.172 0.9759,-1.195 0.9758,-0.391 1.5857,0 1.0002,0 2.5616,0 0.39,0.391 1,0.61 1.562,1 1,2.171 1,3.001 1.562,6.172 1.39,6.782 0.976,2.586 1,2.586 2.562,3.782 1,1.39 0.976,1.586 3.171,2.61 0.976,1.584 1.391,1 1.585,0.98 1.976,0.61 1.586,1 1.366,0.58 4.147,0.39 1.391,0 2.562,0 14.027,0 -1.391,-2.97 -5.123,0 -9.099,-33.254 0,-1 0.61,-1.001 0.976,-0.585 1.585,-0.415 1,0.415 0.976,0.585 1,0.391 0.976,1.195 0.976,1 2.001,2.586 1.951,3.611 1.196,3.172 0.975,2.976 0.415,2.61 0.586,3.172 -5.538,0 1,3.171 2.562,0 2.366,0.415 1.976,1 1.586,1.196 2.561,2.976 2.977,4.194 2.951,0 -1.976,-9.781 6.124,0 -1.171,-3.171 -5.928,0 -3.953,-17.736 0,-0.391 0,-1 0.391,-0.585 1,-0.61 0.976,0 1,0 1.171,0.61 1,0.585 0.976,0.415 1.391,0.976 0.585,1.195 1.976,2.611 0.976,2.976 2.976,9.368 3.562,13.93 -5.538,0 1,4.198 15.223,0 -8.709,-33.668 0,-1.586 0,-1 0.586,-0.61 1,-0.391 1.561,0.391 1,1.195 1.976,2.001 1.391,2.586 2.561,5.196 4.562,7.758 0.98,1 1.58,1.586 0.98,0.586 1,1 1.56,0.585 1.39,0.415 2.98,0 2.14,0 1.39,-0.415 1,-1.171 1.59,-1.415 0.39,1.001 1.17,1.585 8.49,0 -2.56,-8.343 -2.95,-12.564 0,-0.976 0.39,-1 0.58,-0.61 0.42,0 1.56,0 1,0.61 1,1 0.56,0.585 1,4.197 1,0.39 1.98,0 1.95,0 0.61,-0.39 0,-0.61 0.39,-1.001 0,-0.585 0,-1 -0.39,-1.001 -0.61,-0.585 -0.39,0 -0.59,-2.001 0,-1 0,-0.585 0.98,0 0.61,-0.61 2.95,-0.391 2,0.391 0.56,0 1,0.61 0.39,0.585 0.61,0.415 0.59,0.976 0,0.61 0,1 -0.59,0.976 -2.97,2.61 -4.15,4.172 -1,1 -0.98,1.586 -0.39,2.196 0,2 0.39,1.586 0,0.585 0.59,1.001 1.39,1 1.58,1.586 1.98,1 1.98,0.585 2.56,0.415 2.56,0 1.39,0 1.59,-0.415 0.97,-0.585 1.59,-1 1,-1.001 0.39,-1.171 0.58,-1 0.39,-1.586 z m 141.67,-7.782 1,5.782 -0.42,2 -0.58,1.586 -0.39,0.586 -0.59,0.414 -1,0.586 -1.36,0 -1.59,-1 -1,-1.001 -1.58,-2.171 -1.37,-3.001 -0.59,-1.585 -0.61,-1.586 -1,-4.196 -0.36,-2.001 0,-1.195 0.36,-1.976 0.61,-1.586 1,-1 0.98,-0.61 1.59,0 1.39,0.61 0.97,0.585 0.59,1 1.58,1.586 0.98,1.391 0.41,2.195 0.98,2.001 0,2.586 z m -57.7,2.586 -0.58,3.196 -0.39,2.586 -0.59,1 -0.41,0.586 -0.59,0 -1.97,0 -0.39,-1.001 -1.59,-0.585 -1.59,-4.172 -0.97,-2 -0.42,-2.196 -1.56,-4.587 -0.39,-5.757 0.98,-0.415 1.39,-0.585 0.97,0 1,0 0.98,0 0.61,0.585 0.98,0.415 0.61,0.585 0.97,2.001 0.98,2.586 1.39,3.586 0.58,4.172 z m -31.2,-3.562 1,3.562 0,3.196 0,2 -0.41,1.586 -0.59,0.586 0,0.414 -1,0.586 -1.97,-0.586 -1.59,-0.414 -0.98,-1.001 -1.39,-2.171 -2.56,-6.782 -0.39,-1.586 -0.61,-2 0,-2.001 -0.58,-2.171 0.58,-1.61 0.61,-1.391 0.39,-1.195 1.59,-0.391 1.36,0.391 1.61,0.61 0.98,1 1.59,1.586 0.97,3.171 1.39,4.611 z m -90.31,9.344 -1.56,2 -0.42,0 -0.97,0.586 -1.17,-0.586 -1,-0.414 -0.98,-0.586 -1,-1 0,-1 -1,-1.586 -1.56,-5.782 -0.39,-2.976 -0.61,-2.611 0,-2.171 0.61,-1 0.39,-0.61 0,-0.391 1.17,0 1.39,0 1.59,0.391 0.97,1.195 1,1 0.98,1.001 0.58,2 0.42,2.196 0.58,1.976 0.98,8.368 z m -70.919,17.128 -1.976,-0.59 -1.366,0 -1.196,-0.41 -1,-1.588 -1.366,-1.586 -2.586,-3.586 -2.561,-4.782 -1.977,-5.586 9.49,0 4.538,18.128 z"
            style="fill:#0099cc;fill-opacity:1;fill-rule:evenodd;stroke:none"
            id="path4206"
            inkscape:connector-curvature="0"/>
          <path
            d="m 301.1,77.324 -0.58,-3.586 -0.39,-1.61 -1,-1.586 -1.59,-3.001 -1.98,-2.586 -1.58,-1.586 -0.98,-1 -2.97,-1.586 -2.95,-1 -3.18,0 -1.97,0 -1.39,0.39 -1.56,0.61 -1.59,1.586 -1.39,1 -0.98,2.001 -0.61,2.171 -0.39,2.001 -2.17,-2.586 -1.97,-2.001 -3.96,-3.171 -1.97,-1.001 -1.98,-0.61 -2.17,-0.39 -1.37,0 -1.97,0 -2,0.39 -1.56,1.001 -1,1.61 -0.98,1.586 -0.58,1 -0.42,0.976 -0.58,2.195 0,2.586 0,1.61 0.58,2.001 -3.15,-3.196 -2.36,-3.001 -2.59,-2.586 -2.97,-2.195 -2.57,-1.976 -1.97,-1.001 -2.56,-1 -1.98,0 -1.59,0 -1.39,0.39 -1.56,0.61 -1.58,1.001 -2.96,-11.369 -9.09,0 2.17,8.173 3.36,15.54 -2.97,-3.586 -2.96,-3.001 -2.97,-2.586 -3.15,-2.171 -2.36,-1.61 -2.57,-1.001 -1.61,-0.39 -1.36,0 -2.59,0 -1.56,0 -1,0.39 -1.37,0.61 -1,1.001 -1.19,1.585 -0.98,1.001 -1,1.976 -0.39,1.61 -0.97,-1 -1,-1.586 -1.59,-1.61 -1.98,-0.976 -1.95,-1.61 -2.19,-1.001 -2.37,-0.39 -1.98,0 -1.19,0 -1.37,0 -1.58,0.39 -0.98,0.61 -2,1.586 -1.56,1 -1.39,2.001 -0.98,2.171 -0.61,2.001 -0.39,2.586 -0.58,2 0,2.586 0,2.781 0.58,2.001 0.39,2 1,2.586 1.98,4.172 3.17,4.782 1.37,2.586 1.97,2 2.17,1.588 1.98,1.58 1.39,1 2.17,0.39 1.98,0.61 2.36,0 2.59,0 1.56,-0.61 1,-0.39 1.98,-1 0.97,-0.58 0.61,-1 1.37,2.58 3.56,0 -3.56,-14.536 -3.56,0 -0.39,4.586 -0.59,3.196 -0.39,1 -0.61,0.976 -0.39,0.61 -0.58,0.588 -1.39,0.41 -0.98,-0.41 -1.59,-0.588 -1,-1 -1.56,-1 -1.39,-1.586 -1.19,-2.196 -1.37,-2.586 -1.59,-3.001 -1.39,-4.171 -1.56,-3.587 -0.61,-3.781 -0.39,-3.586 0.39,-2.586 0.61,-1.61 0.98,-1.391 0.97,-1.195 1.98,-0.976 1.59,0 0.97,0 1.61,0.585 1.37,1.001 1,1 1.56,1.586 1.59,2 2.97,5.172 1.37,3.781 2.19,2.586 1.96,2.586 1.97,1.586 2,1.415 2.56,1.171 1.98,0.415 1.59,0 2.36,0 1,-0.415 1.17,-0.585 1.39,-1.001 1.56,-1.585 1,-2.001 0.98,-2.171 0,-2.586 0.39,-2.001 -0.39,-2.586 -0.58,-2.586 4.14,4.587 1.98,2.586 1.58,2.586 1.39,4.757 -3.95,0 0.98,2.586 12.05,0 -0.59,-3.171 1.59,1.585 1.95,1.586 2,0.415 2.56,0 1.57,0 1.39,-0.415 1.58,-1.171 1,-1 0.98,-2.001 0.61,-1.585 0.36,-2.001 0,-2.586 0,-3.781 -0.97,-3.586 10.07,11.368 3.56,3.172 2.37,2 3.17,1.586 2.37,0 2.17,0 1.98,0 1,-1 1.36,-0.586 0.59,-1 0.61,-1.586 0.39,-1.415 0,-1.586 0,-2.195 -0.39,-0.391 0,-1 -1.59,-0.585 -0.97,-0.61 -1,0 -1.59,0.61 -0.39,0.585 -0.59,0.415 -0.39,0.976 0,0.61 0,1.585 0.39,1.001 1.57,1 0.41,0 0.98,0.585 -1.39,1.001 -0.98,0.585 -0.59,0 -1,0 -0.97,-1.171 -1.59,-1 -0.97,-2.001 -2,-4.171 -0.59,-2.196 -0.39,-1.976 0,-5.196 0,-1.586 0,-1 0.98,-1.001 1,-0.585 1,-0.415 0.97,0.415 1.59,0.585 1.97,1.001 1.57,1.585 2,2.001 6.51,9.953 3.95,4.172 3.56,3.586 1.96,1.001 1.58,0.585 1.98,0.415 1.58,0 2.37,0 1,-0.415 1.17,0 1.39,-1.586 0.98,-0.585 0.61,-1 1,-2.001 0.39,-2.171 0.58,-2.586 0,-2.586"
            style="fill:none;stroke:#0099cc;stroke-width:0.14;stroke-linecap:butt;stroke-linejoin:round;stroke-miterlimit:10;stroke-dasharray:none;stroke-opacity:1"
            id="path4208"
            inkscape:connector-curvature="0"/>
          <path
            d="m 299.52,119.33 -293.2137,0 0,32.67 293.2137,0 0,-32.67"
            style="fill:none;stroke:#0099cc;stroke-width:0.14;stroke-linecap:butt;stroke-linejoin:round;stroke-miterlimit:10;stroke-dasharray:none;stroke-opacity:1"
            id="path4210"
            inkscape:connector-curvature="0"/>
          <path
            d="m 299.52,6.7944 -293.2137,0 0,32.6666 293.2137,0 0,-32.6666"
            style="fill:none;stroke:#0099cc;stroke-width:0.14;stroke-linecap:butt;stroke-linejoin:round;stroke-miterlimit:10;stroke-dasharray:none;stroke-opacity:1"
            id="path4212"
            inkscape:connector-curvature="0"/>
          <path
            d="m 152.31,83.496 -0.39,-1.415 -0.58,-1.195 -1.39,-0.976 -0.98,0 -1.58,0 -0.98,0.585 -1,1.001 0,1 0,0.585 0.39,1.001 0.61,0.585 0.98,0.415 -0.98,1 -1,0.586 -1,0.585 -0.98,0 -1.58,-0.585 -0.98,-0.586 -0.61,-1.415 0,-1.171 0,-1 0.61,-1 1.56,-2.001 1.98,-1.586 4.56,-3.781 0,-0.39 0.39,-0.61 0.59,-1 0.41,-1.586 0,-1.61 -0.41,-1.391 -0.98,-1.586 -1,-2.195 -2.17,-1.391 -1.98,-1.195 -1.97,-1.001 -2.56,-0.39 -1.98,0 -2.98,0 -1.58,0.39 -1.37,0.61 -1,1.001 -1.17,1 -1,0.976 0,1.195 -3.34,-2.586 -3.17,-1.586 -1.98,-1 -1.97,-0.585 -0.98,0.585 -1,0 -1,1 -0.98,1.001 -1.58,1.585 -2.56,-1.585 -1.98,-1.001 -2.56,-1 -2,0 -1.37,0 -1.56,0 -1.61,0.39 -0.975,1.001 -0.391,0.61 -0.585,1 -1,2.171 -0.391,3.001 -0.976,-1.61 -1.61,-1.391 -1.951,-1.586 -1.586,-1.585 -1.976,-1.001 -1.976,-0.61 -1.586,-0.39 -1.39,0 -1.586,0 -0.976,0 -0.976,0.39 -1,1.001 -0.61,0.61 -0.39,1 -1.171,2.586 -3.367,-2.586 -3.562,-2.001 -2.951,-1 -1.586,0 -0.976,0 -2.586,0 -1.39,1.391 -0.976,0.61 -1.196,1 -0.976,2.586 -0.975,-1.61 -1.391,-0.976 -1.586,-1 -1.585,-0.61 -3.343,-1.391 -4.147,0 -1.976,0 -1.586,0.39 -1.39,0.61 -0.976,1.001 -1,1 -0.586,0.976 0,1.61 0,0.976 0.586,3.196 1,3.195 1.952,7.173 -9.466,0 -1,-3.586 -1.171,-2.586 -1.39,-3.196 -1.586,-2.586 -1.366,-2.001 -2.196,-2.195 -1.976,-1.391 -2.366,-1.586 -1.586,-0.61 -1.561,-0.39 -2.001,0 -1.9515,0 -2.5859,0 -0.9758,0.39 -0.9759,0.61 0,4.172 0.9759,-1.195 0.9758,-0.391 1.5857,0 1.0002,0 2.5615,0 0.39,0.391 1.001,0.61 1.561,1 1,2.171 1,3.001 1.562,6.172 1.39,6.782 0.976,2.586 1,2.586 2.562,3.782 1,1.39 0.976,1.586 3.171,2.61 0.976,1.586 1.391,0.998 1.585,0.98 1.976,0.61 1.586,1 1.366,0.58 4.148,0.39 1.39,0 2.562,0 14.027,0 -1.39,-2.97 -5.124,0 -9.099,-33.254 0,-1 0.61,-1.001 0.976,-0.585 1.585,-0.415 1.001,0.415 0.975,0.585 1.001,0.391 0.975,1.195 0.976,1 2.001,2.586 1.951,3.611 1.196,3.171 0.976,2.977 0.414,2.61 0.586,3.172 -5.538,0 1,3.171 2.562,0 2.366,0.415 1.976,1 1.586,1.196 2.561,2.976 2.977,4.196 2.952,0 -1.977,-9.783 6.124,0 -1.171,-3.171 -5.928,0 -3.952,-17.736 0,-0.391 0,-1 0.39,-0.585 1,-0.61 0.976,0 1,0 1.171,0.61 1,0.585 0.976,0.415 1.391,0.976 0.585,1.195 1.976,2.61 0.976,2.977 2.976,9.368 3.562,13.93 -5.538,0 1.001,4.198 15.222,0 -8.709,-33.668 0,-1.586 0,-1 0.586,-0.61 1,-0.391 1.561,0.391 1,1.195 1.976,2.001 1.391,2.586 2.562,5.196 4.561,7.758 0.98,1 1.58,1.586 0.98,0.585 1,1.001 1.56,0.585 1.39,0.415 2.98,0 2.14,0 1.39,-0.415 1,-1.171 1.59,-1.415 0.39,1 1.17,1.586 8.49,0 -2.56,-8.343 -2.95,-12.564 0,-0.976 0.39,-1 0.58,-0.61 0.42,0 1.56,0 1,0.61 1,1 0.56,0.585 1,4.196 1,0.391 1.98,0 1.95,0 0.61,-0.391 0,-0.609 0.39,-1.001 0,-0.585 0,-1 -0.39,-1.001 -0.61,-0.585 -0.39,0 -0.59,-2.001 0,-1 0,-0.585 0.98,0 0.61,-0.61 2.95,-0.391"
            style="fill:none;stroke:#0099cc;stroke-width:0.14;stroke-linecap:butt;stroke-linejoin:round;stroke-miterlimit:10;stroke-dasharray:none;stroke-opacity:1"
            id="path4214"
            inkscape:connector-curvature="0"/>
          <path
            d="m 136.31,63.369 2,0.391 0.56,0 1,0.61 0.39,0.585 0.61,0.415 0.59,0.976 0,0.61 0,1 -0.59,0.976 -2.97,2.61 -4.15,4.172 -1,1 -0.98,1.586 -0.39,2.195 0,2.001 0.39,1.586 0,0.585 0.59,1 1.39,1.001 1.58,1.585 1.98,1.001 1.98,0.585 2.56,0.415 2.56,0 1.39,0 1.59,-0.415 0.97,-0.585 1.59,-1.001 1,-1 0.39,-1.171 0.58,-1 0.39,-1.586"
            style="fill:none;stroke:#0099cc;stroke-width:0.14;stroke-linecap:butt;stroke-linejoin:round;stroke-miterlimit:10;stroke-dasharray:none;stroke-opacity:1"
            id="path4216"
            inkscape:connector-curvature="0"/>
          <path
            d="m 293.98,75.714 1,5.782 -0.42,2 -0.58,1.586 -0.39,0.585 -0.59,0.415 -1,0.586 -1.36,0 -1.59,-1.001 -1,-1 -1.58,-2.171 -1.37,-3.001 -0.59,-1.586 -0.61,-1.585 -1,-4.196 -0.36,-2.001 0,-1.195 0.36,-1.976 0.61,-1.586 1,-1 0.98,-0.61 1.59,0 1.39,0.61 0.97,0.585 0.59,1 1.58,1.586 0.98,1.391 0.41,2.195 0.98,2.001 0,2.586"
            style="fill:none;stroke:#0099cc;stroke-width:0.14;stroke-linecap:butt;stroke-linejoin:round;stroke-miterlimit:10;stroke-dasharray:none;stroke-opacity:1"
            id="path4218"
            inkscape:connector-curvature="0"/>
          <path
            d="m 236.28,78.3 -0.58,3.196 -0.39,2.586 -0.59,1 -0.41,0.585 -0.59,0 -1.97,0 -0.39,-1 -1.59,-0.585 -1.59,-4.172 -0.97,-2.001 -0.42,-2.195 -1.56,-4.587 -0.39,-5.757 0.98,-0.415 1.39,-0.585 0.97,0 1,0 0.98,0 0.61,0.585 0.98,0.415 0.61,0.585 0.97,2.001 0.98,2.586 1.39,3.586 0.58,4.172"
            style="fill:none;stroke:#0099cc;stroke-width:0.14;stroke-linecap:butt;stroke-linejoin:round;stroke-miterlimit:10;stroke-dasharray:none;stroke-opacity:1"
            id="path4220"
            inkscape:connector-curvature="0"/>
          <path
            d="m 205.08,74.738 1,3.562 0,3.196 0,2 -0.41,1.586 -0.59,0.585 0,0.415 -1,0.586 -1.97,-0.586 -1.59,-0.415 -0.98,-1 -1.39,-2.171 -2.56,-6.782 -0.39,-1.586 -0.61,-2 0,-2.001 -0.58,-2.171 0.58,-1.61 0.61,-1.391 0.39,-1.195 1.59,-0.391 1.36,0.391 1.61,0.61 0.98,1 1.59,1.586 0.97,3.171 1.39,4.611"
            style="fill:none;stroke:#0099cc;stroke-width:0.14;stroke-linecap:butt;stroke-linejoin:round;stroke-miterlimit:10;stroke-dasharray:none;stroke-opacity:1"
            id="path4222"
            inkscape:connector-curvature="0"/>
          <path
            d="m 114.77,84.082 -1.56,2 -0.42,0 -0.97,0.586 -1.17,-0.586 -1,-0.415 -0.98,-0.585 -1,-1 0,-1.001 -1,-1.585 -1.56,-5.782 -0.39,-2.977 -0.61,-2.61 0,-2.171 0.61,-1 0.39,-0.61 0,-0.391 1.17,0 1.39,0 1.59,0.391 0.97,1.195 1,1 0.98,1.001 0.58,2 0.42,2.196 0.58,1.976 0.98,8.368"
            style="fill:none;stroke:#0099cc;stroke-width:0.14;stroke-linecap:butt;stroke-linejoin:round;stroke-miterlimit:10;stroke-dasharray:none;stroke-opacity:1"
            id="path4224"
            inkscape:connector-curvature="0"/>
          <path
            d="m 43.851,101.21 -1.976,-0.59 -1.366,0 -1.196,-0.41 -1,-1.588 -1.366,-1.586 -2.586,-3.586 -2.561,-4.782 -1.976,-5.587 9.489,0 4.538,18.129"
            style="fill:none;stroke:#0099cc;stroke-width:0.14;stroke-linecap:butt;stroke-linejoin:round;stroke-miterlimit:10;stroke-dasharray:none;stroke-opacity:1"
            id="path4226"
            inkscape:connector-curvature="0"/>
          <path
            d="m 334.2,22.445 6.51,-2.196 5.15,-1.586 1.95,-0.39 1.58,0 21.54,3.171 0.98,-0.585 1,-0.61 0,-1 0,-0.976 -0.58,-2.611 -0.42,-2.586 -1.56,-2.586 -0.39,-0.9999 -1,-0.5855 -5.12,-1.0002 -2.39,-1.0003 -3.15,-0.5855 -5.93,-0.6099 -5.54,-0.3903 -1.97,0 -2.57,1.0002 -1.97,0.9759 -2,2.1956 -2.15,1.3909 -1.97,2.586 -0.42,1.195 -0.59,1 -0.39,2.611 0.39,2.586 0.59,1 0.42,0.586 z m -3.96,23.298 0.98,0 1.58,-0.61 2.37,-0.976 2.59,-1.61 2.95,-1.586 5.15,-2.976 1.95,-1 1.58,-1.196 18.98,4.172 0.98,0.61 0.61,0 0.39,-0.61 0.58,-0.39 0.4,-0.586 0,-0.61 1,-1.39 0.58,-1.586 0.61,-1.61 0.39,-2.586 -1,-2.586 -0.58,-2.586 -6.93,-1 -7.49,-1.001 -9.1,-1.585 -1.98,0.39 -4.54,1.195 -5.53,1.391 -2.56,1.195 -1.98,1.001 -1,1 -0.98,1 -1,1.586 0,1 -0.58,3.196 0,2.976 0.58,3.196 1,4.172 z m 2.95,23.298 6.13,-4.781 4.93,-2.977 2.58,-1.585 2.56,-1.001 1.98,-0.61 1.98,-0.39 4.56,-0.585 4.54,0 2.36,-0.61 1.98,-0.391 1.19,0 0.98,-1 1.39,-2.196 0.58,-1 0,-1.586 0,-2 0,-1.586 0,-1 -0.97,-1 -1.98,0 -2.58,-0.586 -6.52,-1.61 -6.12,-1.586 -3.37,-0.39 -2.56,1 -5.15,3.172 -6.51,3.586 -2.95,1.586 -2.98,0.414 -0.97,2.586 -0.61,2.196 -0.39,2.001 0,1.976 0.39,2.195 0,1.586 1,1.391 0.58,1.61 1,1.586 1.59,1 1.36,0.585 z m 41.31,8.783 1.39,-0.61 1.95,-1.39 1.19,-0.586 0.42,-1 0.56,-1 0,-1.196 0,-62.5519 -2.17,-1.5857 -0.98,0 -0.39,-0.6099 -2.95,0 1.37,3.1955 1,2.977 0.97,2.586 0,3.196 -0.39,2.195 -0.58,2.001 0.58,3.171 0.98,2.586 0,2.001 0,2 -0.59,2.196 -0.97,2.976 -1.39,2.586 -0.59,1.196 0,0.39 0.59,2.196 0.39,2 0,1.586 0,2 -0.39,2.172 -0.59,1.415 -1,1.195 -1.58,2.586 -0.4,0.39 0,1.001 1.4,2.195 1.58,2.586 0.59,1.586 0.39,2.001 0.58,4.171 -0.97,6.197 z m 28.64,2.171 3.36,-2.781 3.15,-2.976 2,-3.196 1.37,-3.001 0.58,-1.586 0.42,-1.585 1.17,-3.196 0.39,-3.587 0,-3.586 0,-20.712 -0.39,-1.586 -0.59,-1.586 -0.58,-1.415 -1,-1.195 -2.37,-2.586 -3.56,-1.391 -3.56,-1.585 -2.95,-1.586 -2.98,-1 -2.56,-1.586 -1.98,-1.61 -3.15,-1.001 -5.92,-3.171 0,56.941 4.92,0.61 2.57,0.585 1.97,1 2.59,1.611 2.56,1.39 2.37,2.586 2.17,2.781 z m -59.26,9.173 3.93,0 1,-2.586 1.97,-3 1.98,-2.196 3.17,-1.976 2.95,-1.586 2.57,-1 2.97,-0.61 1.98,-0.39 2.95,0.39 0.61,0 0.39,-0.39 0.58,-2.196 0.4,-3.001 0,-1.586 -0.4,-1.585 -0.58,-1.586 -1,-1.61 -0.39,-1.391 -1.59,-0.585 -0.97,-1.001 -1.59,0 -5.93,0.391 -2.95,0.61 -3.56,0.585 -2.98,1 -3.14,1.586 -2.98,1.391 -2.56,2.195 -1.98,1.586 -1.39,1 -2.17,1.001 -0.39,0.61 0,0.39 -0.58,2.586 0.58,1.61 0.39,2.171 0.59,2.586 1,2.001 1.56,2 0.41,0.586 0.98,1 1.97,1 1,0 1.2,0 z m 30.62,12.542 5.51,0 2.39,0 1.59,-0.59 1.56,-0.41 2.97,-2.588 4.93,-5.172 4.54,-5.782 1.61,-2.001 0.39,-0.585 0.59,-1 -0.59,-1.001 -0.39,-1.195 -1.61,-1.391 -1.95,-2.171 -2.59,-1 -2.36,-1.586 -2.57,-0.61 -2.58,-1 -0.98,0.61 -0.97,1 -1.98,2.586 -1.59,1.586 -1.97,1.586 -1,0.39 -0.98,0 -1.58,0.61 -1.37,0 -2.59,0 -1.58,-0.61 -1.37,-0.976 -1.58,0 -1.59,0 -1.97,0.586 -1.98,1 -1.98,0.585 -0.97,1.001 -1.59,1 -1,1.586 -1.58,1.585 -2.37,3.587 -0.98,1.61 0,1 0,5.172 3.35,0.39 3.56,0.608 7.51,1 9.69,0.59 z m -26.69,44.59 0,-26.47 0,-1 0.41,-0.58 1.17,-1 1,-0.59 2.37,-1 3.17,-0.61 2.95,0 2.57,-0.39 2.97,0 2.95,0 6.54,1 2.95,0.59 3.15,1 1,0 1,1 0.39,0.58 0.59,0.42 0,27.05 1.39,-0.58 1.56,-1 2.97,-2.17 2.57,-2 1.97,-3.17 1.98,-2.62 1,-2.97 0.58,-3.2 0.59,-3.17 -0.59,-2.58 -0.58,-3.01 -1,-3.58 -1.37,-3.17 -1.58,-3.2 -1,-1.41 -0.98,-1.18 -1,-1 -0.98,-0.41 -1.58,-0.59 -1,0 -4.93,0 -3.56,0.59 -2.95,0 -9.1,0 -8.49,-1.59 -5.15,-1 -2.95,-0.58 -1.98,1 -2.58,2.17 -2.57,2 -1.97,2 -1.39,1.59 -1.56,1.61 -0.59,1.97 -1,1.61 0,2.17 0,2.59 0,3 0.59,3.17 1,3.59 1,3.19 0.97,1.59 0.59,1.42 2.36,3.17 2.57,3.17 3.56,2.58 z m 2,6.2 0.58,0 0.39,-0.58 0.59,-0.42 0,-0.58 0,-30.09 2.98,-0.61 3.56,-0.97 3.54,0 2.97,-0.42 2.95,0.42 4.54,0.58 2.59,0.39 1.97,0.61 1.37,0.59 1.19,0.41 0,28.08 0.42,1.01 0.56,0.58 1,0 1.39,-0.58 1.98,-1.01 3.56,-1.61 3.54,-2 2.58,-2.58 1.98,-2.59 1.95,-3.17 1.61,-3.2 0.98,-2.97 0.39,-3.2 0,-3.17 0,-4 -0.98,-4.17 -0.39,-1.59 -0.61,-1.61 -1.39,-2.97 -1.56,-2.61 -1.98,-2.18 -2.97,-3 -1.18,-1.19 0.59,-0.39 0.98,-1.59 3.95,-4.584 5.15,-5.782 1.97,-2.586 1.59,-2.586 1.39,-1.586 0.97,-1 0.98,-1 2.17,-1.586 2,-1.586 0.98,-1 0.97,-0.61 1.59,-1.976 1,-2.196 0.97,-2.61 1,-3.977 0.98,-4.172 0,-29.495 -0.58,-1.585 0,-1.586 -0.4,-1 -0.58,-1.001 -2,-2.171 -1.98,-1.61 -1.95,-1.391 -2.58,-1.195 -4.54,-2.586 -2.98,-1.61 -2.95,-0.976 -3.17,-1.61 -2.95,-1.391 -4.54,-2.5859 -4.56,-3.1715 -1.98,-1.0002 -1.95,-1.0003 -2,-0.5855 -2.56,-0.6099 -1.37,0 -1.61,0.6099 -3.54,0.9759 -21.54,-3.5863 -1.58,0 -1.37,0.6099 -3.56,1.0003 -2.56,1.5857 -1.59,1.0003 -1.39,1.5857 -1,1.0003 -0.98,1.5857 -0.97,0.9999 -1.2,1.586 -1,3.001 -0.39,1.586 0,1.61 0,1.586 0.39,1.585 0.61,2.001 -1,1.586 -1.58,2.976 -1.95,4.782 -0.61,2.61 0,2.976 0,2.586 0.61,2.196 0.58,1.586 0.39,1.39 -0.39,2.196 -1.58,2.976 -1,3.806 -0.59,2.001 0,1.976 0,1.585 0.59,1.611 0.39,2.586 1.61,1.976 1.56,1.61 2.36,3.171 0.61,1.001 0.39,1 0,0.61 0,4.562 0.59,2.586 1,3.196 1.98,2.586 0.97,1 1,1 2.56,2.172 2.56,1.61 1.39,0.39 1.57,0.61 1,0.39 1,0 0,4.782 -0.39,0.39 -1.61,1.608 -2.57,1.59 -2.95,1.97 -1.39,1.61 -1.17,1.59 -2.39,3.59 -0.98,2.19 -0.97,2.59 -0.61,2.58 0,2.59 0,2.59 0.61,3 0.97,5.78 0.98,1.97 1.39,3.2 2.59,3.17 2.56,3.59 2.36,3 3.18,2.59 1.95,1.61 1,0.58 1,0 z"
            style="fill:#0099cc;fill-opacity:1;fill-rule:evenodd;stroke:none"
            id="path4228"
            inkscape:connector-curvature="0"/>
          <path
            d="m 334.7,21.944 6.51,-2.195 5.15,-1.586 1.95,-0.39 1.58,0 21.55,3.171 0.97,-0.585 1,-0.61 0,-1 0,-0.976 -0.58,-2.611 -0.42,-2.586 -1.56,-2.5857 -0.39,-1.0003 -1,-0.5855 -5.12,-1.0002 -2.39,-1.0003 -3.15,-0.5855 -5.93,-0.6099 -5.54,-0.3903 -1.97,0 -2.57,1.0002 -1.97,0.9759 -2,2.1956 -2.15,1.391 -1.97,2.586 -0.42,1.195 -0.58,1 -0.4,2.611 0.4,2.586 0.58,1 0.42,0.585"
            style="fill:none;stroke:#0099cc;stroke-width:0.14;stroke-linecap:butt;stroke-linejoin:round;stroke-miterlimit:10;stroke-dasharray:none;stroke-opacity:1"
            id="path4230"
            inkscape:connector-curvature="0"/>
          <path
            d="m 330.74,45.243 0.98,0 1.58,-0.61 2.37,-0.976 2.59,-1.61 2.95,-1.586 5.15,-2.976 1.95,-1 1.58,-1.196 18.98,4.172 0.98,0.61 0.61,0 0.39,-0.61 0.59,-0.39 0.39,-0.586 0,-0.61 1,-1.39 0.58,-1.586 0.61,-1.61 0.39,-2.586 -1,-2.586 -0.58,-2.586 -6.93,-1.001 -7.49,-1 -9.1,-1.586 -1.98,0.391 -4.54,1.195 -5.53,1.391 -2.56,1.195 -1.98,1 -1,1.001 -0.98,1 -1,1.586 0,1 -0.58,3.196 0,2.976 0.58,3.196 1,4.172"
            style="fill:none;stroke:#0099cc;stroke-width:0.14;stroke-linecap:butt;stroke-linejoin:round;stroke-miterlimit:10;stroke-dasharray:none;stroke-opacity:1"
            id="path4232"
            inkscape:connector-curvature="0"/>
          <path
            d="m 333.7,68.541 6.12,-4.781 4.93,-2.977 2.58,-1.585 2.56,-1.001 1.98,-0.61 1.98,-0.39 4.56,-0.585 4.54,0 2.36,-0.61 1.98,-0.391 1.19,0 0.98,-1 1.39,-2.196 0.59,-1 0,-1.586 0,-2 0,-1.586 0,-1 -0.98,-1 -1.98,0 -2.58,-0.586 -6.52,-1.61 -6.12,-1.586 -3.37,-0.39 -2.56,1 -5.15,3.172 -6.51,3.586 -2.95,1.586 -2.98,0.414 -0.97,2.586 -0.61,2.196 -0.39,2.001 0,1.976 0.39,2.195 0,1.586 1,1.391 0.58,1.61 1,1.586 1.59,1 1.37,0.585"
            style="fill:none;stroke:#0099cc;stroke-width:0.14;stroke-linecap:butt;stroke-linejoin:round;stroke-miterlimit:10;stroke-dasharray:none;stroke-opacity:1"
            id="path4234"
            inkscape:connector-curvature="0"/>
          <path
            d="m 375,77.324 1.39,-0.61 1.95,-1.391 1.19,-0.585 0.42,-1 0.56,-1.001 0,-1.195 0,-62.552 -2.17,-1.5857 -0.98,0 -0.39,-0.6099 -2.95,0 1.37,3.1959 1,2.9767 0.97,2.586 0,3.196 -0.39,2.195 -0.58,2.001 0.58,3.171 0.98,2.586 0,2.001 0,2 -0.59,2.196 -0.97,2.976 -1.39,2.586 -0.59,1.196 0,0.39 0.59,2.196 0.39,2 0,1.586 0,2 -0.39,2.172 -0.59,1.415 -1,1.195 -1.58,2.586 -0.39,0.39 0,1.001 1.39,2.195 1.58,2.586 0.59,1.586 0.39,2.001 0.58,4.171 -0.97,6.197"
            style="fill:none;stroke:#0099cc;stroke-width:0.14;stroke-linecap:butt;stroke-linejoin:round;stroke-miterlimit:10;stroke-dasharray:none;stroke-opacity:1"
            id="path4236"
            inkscape:connector-curvature="0"/>
          <path
            d="m 403.64,79.495 3.36,-2.781 3.15,-2.976 2,-3.196 1.37,-3.001 0.58,-1.586 0.42,-1.585 1.17,-3.196 0.39,-3.587 0,-3.586 0,-20.712 -0.39,-1.586 -0.59,-1.586 -0.58,-1.415 -1,-1.195 -2.37,-2.586 -3.56,-1.391 -3.56,-1.586 -2.95,-1.585 -2.98,-1.001 -2.56,-1.585 -1.98,-1.61 -3.15,-1.001 -5.92,-3.171 0,56.941 4.92,0.61 2.57,0.585 1.97,1 2.59,1.61 2.56,1.391 2.37,2.586 2.17,2.781"
            style="fill:none;stroke:#0099cc;stroke-width:0.14;stroke-linecap:butt;stroke-linejoin:round;stroke-miterlimit:10;stroke-dasharray:none;stroke-opacity:1"
            id="path4238"
            inkscape:connector-curvature="0"/>
          <path
            d="m 344.38,88.668 3.93,0 1,-2.586 1.97,-3.001 1.98,-2.195 3.17,-1.976 2.95,-1.586 2.57,-1 2.97,-0.61 1.98,-0.391 2.95,0.391 0.61,0 0.39,-0.391 0.59,-2.195 0.39,-3.001 0,-1.586 -0.39,-1.585 -0.59,-1.586 -1,-1.61 -0.39,-1.391 -1.59,-0.585 -0.97,-1.001 -1.59,0 -5.93,0.391 -2.95,0.61 -3.56,0.585 -2.98,1 -3.14,1.586 -2.98,1.391 -2.56,2.195 -1.98,1.586 -1.39,1 -2.17,1.001 -0.39,0.609 0,0.391 -0.58,2.586 0.58,1.61 0.39,2.171 0.59,2.586 1,2.001 1.56,2 0.41,0.586 0.98,1 1.97,1 1,0 1.2,0"
            style="fill:none;stroke:#0099cc;stroke-width:0.14;stroke-linecap:butt;stroke-linejoin:round;stroke-miterlimit:10;stroke-dasharray:none;stroke-opacity:1"
            id="path4240"
            inkscape:connector-curvature="0"/>
          <path
            d="m 375,101.21 5.51,0 2.39,0 1.59,-0.59 1.56,-0.41 2.97,-2.588 4.93,-5.172 4.54,-5.782 1.61,-2.001 0.39,-0.585 0.59,-1.001 -0.59,-1 -0.39,-1.195 -1.61,-1.391 -1.95,-2.171 -2.59,-1 -2.36,-1.586 -2.57,-0.61 -2.58,-1 -0.98,0.61 -0.97,1 -1.98,2.586 -1.59,1.586 -1.97,1.585 -1,0.391 -0.98,0 -1.58,0.61 -1.37,0 -2.58,0 -1.59,-0.61 -1.37,-0.976 -1.58,0 -1.59,0 -1.97,0.585 -1.98,1.001 -1.98,0.585 -0.97,1 -1.59,1.001 -1,1.585 -1.58,1.586 -2.37,3.586 -0.98,1.611 0,1 0,5.172 3.35,0.39 3.56,0.61 7.51,0.998 9.69,0.59"
            style="fill:none;stroke:#0099cc;stroke-width:0.14;stroke-linecap:butt;stroke-linejoin:round;stroke-miterlimit:10;stroke-dasharray:none;stroke-opacity:1"
            id="path4242"
            inkscape:connector-curvature="0"/>
          <path
            d="m 348.31,145.8 0,-26.47 0,-1 0.41,-0.58 1.17,-1 1,-0.59 2.37,-1 3.17,-0.61 2.95,0 2.57,-0.39 2.97,0 2.95,0 6.54,1 2.95,0.59 3.15,1 1,0 1,1 0.39,0.58 0.59,0.42 0,27.05 1.39,-0.58 1.56,-1 2.97,-2.17 2.57,-2 1.97,-3.17 1.98,-2.62 1,-2.97 0.58,-3.2 0.59,-3.17 -0.59,-2.59 -0.58,-3 -1,-3.58 -1.37,-3.17 -1.58,-3.2 -1,-1.41 -0.98,-1.18 -1,-1 -0.98,-0.41 -1.58,-0.59 -1,0 -4.93,0 -3.56,0.59 -2.95,0 -9.1,0 -8.49,-1.59 -5.15,-1 -2.95,-0.58 -1.98,1 -2.58,2.17 -2.57,2 -1.97,2 -1.39,1.59 -1.56,1.61 -0.59,1.97 -1,1.61 0,2.17 0,2.59 0,3 0.59,3.17 1,3.59 1,3.19 0.97,1.59 0.59,1.42 2.36,3.17 2.57,3.17 3.56,2.58"
            style="fill:none;stroke:#0099cc;stroke-width:0.14;stroke-linecap:butt;stroke-linejoin:round;stroke-miterlimit:10;stroke-dasharray:none;stroke-opacity:1"
            id="path4244"
            inkscape:connector-curvature="0"/>
          <path
            d="m 350.31,152 0.58,0 0.39,-0.58 0.59,-0.42 0,-0.58 0,-30.09 2.98,-0.61 3.56,-0.97 3.54,0 2.97,-0.42 2.95,0.42 4.54,0.58 2.59,0.39 1.97,0.61 1.37,0.59 1.19,0.41 0,28.08 0.42,1.01 0.56,0.58 1,0 1.39,-0.58 1.98,-1.01 3.56,-1.61 3.54,-2 2.58,-2.58 1.98,-2.59 1.95,-3.17 1.61,-3.2 0.98,-2.97 0.39,-3.2 0,-3.17 0,-4 -0.98,-4.17 -0.39,-1.59 -0.61,-1.61 -1.39,-2.97 -1.56,-2.61 -1.98,-2.18 -2.97,-3 -1.18,-1.19 0.59,-0.39 0.98,-1.588 3.95,-4.586 5.15,-5.782 1.97,-2.586 1.59,-2.586 1.39,-1.586 0.97,-1 0.98,-1.001 2.17,-1.585 2,-1.586 0.98,-1 0.97,-0.61 1.59,-1.976 1,-2.196 0.97,-2.61 1,-3.977 0.98,-4.172 0,-29.495 -0.58,-1.586 0,-1.585 -0.4,-1.001 -0.58,-1 -2,-2.171 -1.98,-1.61 -1.95,-1.391 -2.58,-1.195 -4.54,-2.586 -2.98,-1.61 -2.95,-0.976 -3.17,-1.61 -2.95,-1.391 -4.54,-2.586 -4.56,-3.1715 -1.98,-1.0002 -1.95,-1.0003 -2,-0.5855 -2.56,-0.6099 -1.37,0 -1.61,0.6099 -3.54,0.9759 -21.54,-3.58628 -1.58,0 -1.37,0.60988 -3.56,1.0003 -2.56,1.5857 -1.59,1.0003 -1.39,1.5857 -1,1.0003 -0.98,1.5857 -0.97,1.0003 -1.2,1.5857 -1,3.001 -0.39,1.586 0,1.61 0,1.585 0.39,1.586 0.61,2.001 -1,1.585 -1.58,2.977 -1.95,4.781 -0.61,2.611 0,2.976 0,2.586 0.61,2.196 0.58,1.586 0.39,1.39 -0.39,2.196 -1.58,2.976 -1,3.806 -0.59,2.001 0,1.976 0,1.585 0.59,1.611 0.39,2.586 1.61,1.976 1.56,1.61 2.36,3.171 0.61,1.001 0.39,1 0,0.61 0,4.562 0.59,2.586 1,3.196 1.98,2.586 0.97,1 1,1 2.56,2.171 2.56,1.611 1.39,0.39 1.57,0.61 1,0.39 1,0 0,4.782 -0.39,0.39 -1.61,1.608 -2.57,1.59 -2.95,1.97 -1.39,1.61 -1.17,1.59 -2.39,3.59 -0.98,2.19 -0.97,2.59 -0.61,2.58 0,2.59 0,2.59 0.61,3 0.97,5.78 0.98,1.97 1.39,3.2 2.59,3.17 2.56,3.59 2.36,3 3.18,2.59 1.95,1.61 1,0.58 1,0"
            style="fill:none;stroke:#0099cc;stroke-width:0.14;stroke-linecap:butt;stroke-linejoin:round;stroke-miterlimit:10;stroke-dasharray:none;stroke-opacity:1"
            id="path4246"
            inkscape:connector-curvature="0"/>
        </g>
      </g>
    </g>
  </g>
</svg>
